<?xml version="1.0" standalone="no"?>
<!DOCTYPE svg PUBLIC "-//W3C//DTD SVG 20010904//EN"
 "http://www.w3.org/TR/2001/REC-SVG-20010904/DTD/svg10.dtd">
<svg version="1.0" xmlns="http://www.w3.org/2000/svg"
 width="300.000000pt" height="119.000000pt" viewBox="0 0 300.000000 119.000000"
 preserveAspectRatio="xMidYMid meet">
<metadata>
Created by potrace 1.10, written by Peter Selinger 2001-2011
</metadata>
<g transform="translate(0.000000,119.000000) scale(0.100000,-0.100000)"
fill="#00008b" stroke="none">
<path d="M15 1180 c-18 -8 -17 -9 8 -9 16 -1 26 3 22 9 -3 6 -7 10 -8 9 -1 0
-11 -4 -22 -9z"/>
<path d="M70 1186 c0 -2 7 -7 16 -10 8 -3 12 -2 9 4 -6 10 -25 14 -25 6z"/>
<path d="M264 1169 c19 -9 56 -16 83 -17 35 0 41 2 23 7 -24 7 -24 7 -5 19 11
6 15 12 9 12 -5 0 -14 -4 -20 -9 -5 -5 -19 -12 -31 -16 -17 -4 -21 -3 -18 7 4
9 -6 13 -35 13 l-40 1 34 -17z"/>
<path d="M406 1181 c-13 -5 -16 -10 -9 -14 7 -4 14 -3 18 3 3 5 11 10 16 10 6
0 7 -4 4 -10 -3 -5 3 -10 14 -10 11 0 23 5 26 10 4 6 11 8 16 5 5 -4 9 -1 9 4
0 15 -23 14 -38 -1 -9 -9 -12 -9 -12 0 0 13 -15 14 -44 3z"/>
<path d="M560 1179 c0 -13 29 -31 39 -24 6 3 19 1 30 -4 14 -8 21 -8 24 2 4 8
8 9 14 2 13 -17 53 -16 53 1 0 12 -4 13 -22 3 -21 -11 -22 -11 -9 5 12 14 11
16 -10 12 -13 -3 -24 -5 -24 -6 0 -1 -17 -2 -37 -4 -39 -3 -52 9 -20 17 9 3 5
4 -10 4 -16 -1 -28 -4 -28 -8z"/>
<path d="M722 1179 c10 -5 15 -16 12 -24 -4 -8 -2 -15 4 -15 6 0 9 6 8 13 -3
20 -16 37 -29 37 -7 0 -4 -5 5 -11z"/>
<path d="M811 1172 c-8 -14 -17 -19 -32 -15 -14 4 -20 2 -16 -5 11 -16 -4 -44
-19 -38 -8 3 -14 -1 -14 -9 0 -8 -8 -15 -17 -15 -12 0 -14 3 -6 8 8 5 3 11
-13 19 -26 12 -32 5 -12 -15 23 -23 -2 -24 -25 -2 -14 13 -31 24 -38 26 -8 1
-23 6 -34 10 -19 8 -19 7 -4 -16 10 -15 29 -27 48 -30 18 -3 30 -9 29 -15 -2
-5 -6 -9 -10 -8 -4 2 -19 -4 -35 -12 -15 -8 -22 -15 -15 -15 6 0 14 1 15 3 2
1 12 -5 22 -13 17 -14 17 -13 10 8 -6 22 -5 23 14 13 18 -10 20 -9 14 6 -6 16
-5 16 10 4 15 -12 17 -12 11 3 -5 12 0 16 20 16 14 0 26 5 26 10 0 6 7 10 15
10 8 0 15 4 15 9 0 5 9 13 21 16 11 4 25 18 30 32 12 32 5 42 -10 15z m-176
-62 c3 -5 1 -10 -4 -10 -6 0 -11 5 -11 10 0 6 2 10 4 10 3 0 8 -4 11 -10z"/>
<path d="M850 1175 c0 -8 -5 -15 -11 -15 -5 0 -7 -4 -4 -10 4 -6 11 -5 19 2
14 14 17 38 4 38 -4 0 -8 -7 -8 -15z"/>
<path d="M1000 1179 c0 -5 5 -7 10 -4 6 3 10 8 10 11 0 2 -4 4 -10 4 -5 0 -10
-5 -10 -11z"/>
<path d="M1030 1179 c0 -5 3 -8 8 -8 4 1 14 1 22 0 13 -1 13 -2 0 -11 -13 -9
-13 -10 0 -10 8 0 21 4 29 9 11 7 11 10 0 17 -19 12 -59 14 -59 3z"/>
<path d="M1124 1182 c4 -7 2 -12 -3 -12 -6 0 -11 -4 -11 -10 0 -5 7 -10 15
-10 18 0 20 26 3 36 -7 4 -8 3 -4 -4z"/>
<path d="M1166 1181 c5 -5 18 -11 29 -14 17 -4 16 -5 -5 -6 -20 -1 -22 -3 -10
-11 12 -8 8 -10 -15 -11 -16 -1 -39 -1 -50 -1 -17 2 -18 0 -5 -8 11 -8 6 -10
-22 -7 -42 5 -45 1 -24 -29 10 -14 27 -21 53 -22 36 -1 37 0 18 14 -11 8 -30
12 -42 9 -16 -4 -23 -1 -23 9 0 11 7 13 30 6 17 -5 28 -5 25 0 -8 13 23 20 92
20 68 0 83 7 25 12 -21 1 -31 7 -29 17 1 8 -10 17 -27 22 -16 5 -25 4 -20 0z"/>
<path d="M1235 1180 c-7 -12 2 -12 30 0 19 8 19 9 -2 9 -12 1 -25 -3 -28 -9z"/>
<path d="M1310 1180 c-20 -6 -21 -8 -5 -8 11 0 34 4 50 8 27 7 27 8 5 8 -14 0
-36 -4 -50 -8z"/>
<path d="M1405 1179 c4 -5 18 -9 32 -9 32 0 23 12 -12 16 -14 1 -23 -2 -20 -7z"/>
<path d="M1503 1165 c-9 -20 -8 -25 3 -25 8 0 14 -5 14 -11 0 -5 4 -8 9 -4 5
3 17 -3 27 -12 16 -16 17 -16 12 -1 -4 9 -2 19 5 22 11 4 -27 10 -45 7 -5 0
-8 8 -8 20 0 11 5 17 10 14 6 -3 10 -1 10 4 0 21 -25 11 -37 -14z"/>
<path d="M1564 1182 c3 -5 0 -13 -6 -15 -8 -3 -6 -6 5 -6 19 -1 23 14 5 25 -6
4 -8 3 -4 -4z"/>
<path d="M1620 1180 c-12 -8 -11 -10 7 -10 12 0 25 5 28 10 8 13 -15 13 -35 0z"/>
<path d="M1675 1180 c-3 -5 -2 -10 4 -10 5 0 13 5 16 10 3 6 2 10 -4 10 -5 0
-13 -4 -16 -10z"/>
<path d="M1720 1180 c-9 -6 -10 -10 -3 -10 6 0 15 5 18 10 8 12 4 12 -15 0z"/>
<path d="M1758 1183 c6 -2 18 -2 25 0 6 3 1 5 -13 5 -14 0 -19 -2 -12 -5z"/>
<path d="M1805 1180 c-3 -5 -1 -10 4 -10 6 0 11 5 11 10 0 6 -2 10 -4 10 -3 0
-8 -4 -11 -10z"/>
<path d="M1835 1180 c-3 -5 1 -10 9 -10 9 0 16 5 16 10 0 6 -4 10 -9 10 -6 0
-13 -4 -16 -10z"/>
<path d="M1925 1178 c-18 -8 -18 -8 3 -4 14 3 25 -1 29 -10 5 -15 23 -20 23
-6 0 16 -35 29 -55 20z"/>
<path d="M1978 1183 c7 -3 16 -2 19 1 4 3 -2 6 -13 5 -11 0 -14 -3 -6 -6z"/>
<path d="M2030 1180 c0 -5 6 -9 13 -7 6 1 11 -4 10 -10 -3 -14 9 -17 20 -6 4
3 -1 12 -11 19 -21 16 -32 17 -32 4z"/>
<path d="M2109 1183 c-1 -4 -1 -11 0 -15 0 -5 -5 -8 -11 -8 -7 -1 -2 -7 11
-14 l23 -13 -23 -6 c-13 -3 -20 -9 -16 -13 12 -12 -36 -32 -50 -21 -9 7 -13 4
-13 -8 0 -16 9 -17 88 -11 48 4 119 9 157 11 242 15 245 16 245 36 0 23 -1 23
-34 5 -20 -10 -34 -11 -60 -2 -19 6 -32 14 -29 19 2 4 14 5 25 1 14 -4 19 -2
16 7 -2 6 -15 14 -28 16 -13 2 -28 9 -33 16 -5 7 -6 1 -3 -15 4 -19 2 -28 -6
-29 -7 0 -2 -5 12 -11 15 -6 20 -12 12 -15 -7 -3 -20 -2 -30 2 -9 4 -26 9 -37
10 -11 2 -31 5 -43 8 -14 4 -34 -1 -49 -10 -21 -14 -26 -14 -33 -3 -5 8 -19
15 -32 16 -40 3 -60 15 -48 29 8 9 8 15 0 20 -5 3 -11 3 -11 -2z m66 -62 c-3
-6 3 -14 12 -20 16 -9 16 -10 1 -11 -9 0 -19 6 -21 13 -4 9 -8 9 -14 1 -4 -6
-19 -14 -33 -18 -17 -5 -21 -4 -11 2 11 8 11 11 0 18 -13 8 -2 12 64 23 5 0 6
-3 2 -8z m110 0 c-3 -5 3 -12 12 -14 10 -2 8 -3 -5 -2 -12 1 -25 -2 -28 -7 -4
-6 -10 -5 -15 3 -6 10 -2 16 14 21 12 3 23 6 25 7 2 1 1 -3 -3 -8z"/>
<path d="M2144 1179 c-2 -4 5 -9 16 -12 11 -3 20 -1 20 5 0 6 9 8 20 5 11 -3
20 -1 20 4 0 10 -69 8 -76 -2z"/>
<path d="M2247 1173 c4 -10 2 -14 -4 -10 -6 4 -22 3 -35 -2 -21 -9 -19 -10 15
-10 31 -1 37 2 37 19 0 11 -4 20 -10 20 -5 0 -6 -7 -3 -17z"/>
<path d="M2270 1186 c0 -9 40 -13 46 -5 3 5 -6 9 -20 9 -14 0 -26 -2 -26 -4z"/>
<path d="M2337 1183 c-12 -12 -7 -30 8 -30 10 0 12 4 4 13 -7 8 -6 14 3 17 7
3 8 6 2 6 -6 1 -14 -2 -17 -6z"/>
<path d="M2463 1183 c-7 -3 -13 -12 -13 -20 0 -12 7 -14 35 -9 23 5 35 3 35
-4 0 -6 11 -3 25 7 28 21 34 38 8 25 -26 -14 -102 -25 -83 -13 16 11 11 21 -7
14z"/>
<path d="M2585 1180 c-5 -9 68 -16 115 -11 12 2 13 0 1 -8 -10 -7 -11 -16 -4
-37 5 -16 8 -49 5 -73 l-4 -43 40 6 c24 3 42 1 44 -5 2 -7 12 -7 30 0 22 8 29
7 36 -6 6 -11 11 -12 16 -4 4 6 1 11 -6 11 -10 0 -9 3 2 9 19 13 33 3 27 -20
-3 -10 -1 -22 4 -25 5 -3 9 -2 8 3 -5 26 2 35 24 30 l22 -6 -24 20 c-23 19
-77 23 -87 7 -3 -4 -10 -8 -15 -8 -6 0 -7 4 -4 10 4 6 -14 8 -49 4 -37 -4 -56
-3 -56 4 0 16 18 24 25 12 4 -6 15 -2 28 10 20 19 22 19 28 4 3 -11 8 -14 12
-7 4 6 0 16 -8 23 -12 10 -19 10 -33 -2 -21 -19 -57 -21 -42 -3 5 7 7 15 3 18
-3 4 9 7 28 8 19 0 28 3 21 6 -21 8 -2 23 23 17 13 -3 26 -1 30 6 5 8 1 11
-11 9 -11 -2 -25 0 -31 4 -7 5 -13 4 -13 -2 0 -6 -9 -15 -19 -20 -16 -9 -18
-8 -14 9 3 11 10 17 17 13 6 -4 4 1 -4 12 -14 17 -13 17 10 10 21 -6 23 -5 12
6 -10 10 -17 11 -31 2 -13 -8 -22 -8 -29 -1 -14 14 -119 21 -127 8z m139 -45
c-4 -8 -7 -15 -9 -15 -2 0 -5 7 -9 15 -3 9 0 15 9 15 9 0 12 -6 9 -15z"/>
<path d="M2805 1177 c27 -9 27 -11 10 -18 -16 -5 -14 -7 10 -7 17 1 41 -3 55
-7 20 -6 22 -5 13 5 -6 7 -9 19 -6 26 4 10 -8 13 -53 12 -52 -1 -55 -3 -29
-11z m70 -7 c-3 -5 -12 -10 -20 -10 -8 0 -17 5 -20 10 -4 6 5 10 20 10 15 0
24 -4 20 -10z"/>
<path d="M2910 1179 c0 -5 9 -9 20 -9 11 0 20 2 20 4 0 2 -9 6 -20 9 -11 3
-20 1 -20 -4z"/>
<path d="M146 1164 c-3 -8 -11 -12 -17 -8 -8 4 -9 3 -5 -4 9 -16 5 -15 -31 3
-22 11 -37 13 -54 6 -22 -9 -22 -10 -4 -12 11 -1 26 -1 33 0 8 1 24 -5 37 -13
25 -17 65 -18 62 -1 -1 5 8 10 20 9 12 0 20 3 17 8 -8 13 -30 9 -44 -7 -7 -8
-17 -15 -23 -15 -6 0 0 11 13 25 13 14 19 25 13 25 -6 0 -14 -7 -17 -16z"/>
<path d="M204 1164 c17 -16 13 -34 -7 -34 -7 0 -18 -9 -25 -20 -10 -17 -10
-20 5 -20 25 0 47 16 39 28 -3 5 1 13 10 16 13 5 15 2 11 -14 -3 -14 -1 -18 6
-13 7 4 18 8 26 8 8 0 16 6 19 14 3 8 0 11 -6 7 -6 -3 -12 -2 -14 3 -1 5 -10
11 -18 13 -8 2 -21 9 -28 16 -20 18 -36 15 -18 -4z"/>
<path d="M893 1163 c-20 -8 -15 -19 9 -20 18 -2 20 0 8 8 -12 8 -10 9 9 7 33
-4 37 -22 9 -36 -13 -6 -18 -11 -12 -11 5 -1 19 5 29 13 34 25 -9 57 -52 39z"/>
<path d="M970 1160 c8 -5 20 -10 25 -10 6 0 3 5 -5 10 -8 5 -19 10 -25 10 -5
0 -3 -5 5 -10z"/>
<path d="M1380 1161 c0 -6 4 -12 8 -15 5 -3 9 1 9 9 0 8 -4 15 -9 15 -4 0 -8
-4 -8 -9z"/>
<path d="M1590 1155 c0 -16 16 -20 24 -6 3 5 -1 11 -9 15 -9 3 -15 0 -15 -9z"/>
<path d="M1736 1154 c-6 -15 -4 -15 11 -3 10 7 20 15 22 16 2 2 -3 3 -11 3 -9
0 -19 -7 -22 -16z"/>
<path d="M2290 1150 c33 -26 50 -26 22 0 -12 11 -27 20 -34 20 -7 0 -2 -9 12
-20z"/>
<path d="M473 1149 c-33 -12 -29 -15 22 -18 34 -1 43 1 40 11 -7 16 -32 19
-62 7z"/>
<path d="M1260 1154 c8 -4 23 -13 33 -22 9 -8 20 -12 24 -9 3 4 16 -1 27 -10
20 -17 20 -17 7 0 -12 15 -11 17 9 17 28 0 22 9 -11 15 -46 10 -104 15 -89 9z"/>
<path d="M1436 1151 c-3 -5 0 -14 8 -20 10 -8 16 -8 25 2 6 8 8 17 4 20 -9 10
-31 9 -37 -2z"/>
<path d="M1675 1151 c-3 -7 -15 -9 -26 -6 -14 5 -17 3 -13 -9 7 -19 16 -20 31
-5 8 8 17 8 32 0 17 -10 21 -9 21 4 0 9 -5 13 -11 9 -6 -3 -15 -1 -19 6 -6 9
-9 9 -15 1z"/>
<path d="M1786 1144 c-8 -20 -8 -24 2 -24 4 0 8 9 9 20 2 24 -3 26 -11 4z"/>
<path d="M1820 1145 c0 -8 4 -15 10 -15 5 0 7 7 4 15 -4 8 -8 15 -10 15 -2 0
-4 -7 -4 -15z"/>
<path d="M1937 1146 c12 -9 21 -22 19 -29 -1 -6 -1 -9 1 -4 3 4 11 7 19 7 20
0 17 17 -3 23 -10 2 -27 8 -38 12 -18 7 -17 6 2 -9z"/>
<path d="M2001 1153 c10 -2 19 -13 22 -24 4 -16 11 -19 29 -14 36 11 45 25 16
25 -15 0 -30 5 -33 10 -3 6 -16 9 -28 9 -15 -1 -17 -3 -6 -6z"/>
<path d="M2595 1151 c3 -3 21 -4 39 -3 22 2 33 -1 33 -10 0 -9 -14 -12 -52
-10 -38 3 -55 -1 -64 -12 -12 -14 -10 -16 12 -16 14 0 29 5 32 10 3 6 12 10
18 10 7 0 6 -4 -3 -10 -13 -8 -15 -38 -12 -191 1 -102 7 -189 13 -198 8 -12 9
-7 5 22 -6 44 -2 46 19 10 9 -16 13 -19 9 -8 -5 11 -9 45 -9 75 -2 122 -5 141
-17 134 -8 -5 -9 -2 -5 10 4 10 7 23 7 28 0 6 3 8 7 5 3 -4 15 0 25 10 10 9
21 13 25 9 4 -4 1 -11 -7 -16 -8 -6 -10 -10 -5 -10 6 0 4 -4 -4 -9 -7 -5 -11
-15 -9 -22 3 -9 11 -4 22 16 9 17 15 22 12 13 -3 -10 -1 -20 4 -23 13 -8 13
-55 0 -55 -15 0 -12 -17 3 -23 10 -4 14 6 15 35 1 28 9 47 24 59 11 11 17 19
13 19 -5 0 -17 -7 -27 -17 -17 -15 -18 -15 -18 5 0 11 -7 27 -15 35 -19 19
-56 11 -48 -10 5 -13 3 -13 -16 -4 -19 10 -21 17 -15 49 8 41 22 56 40 41 21
-17 56 6 37 25 -5 4 -8 13 -8 19 0 7 -17 12 -43 13 -23 1 -40 -1 -37 -5z m24
-331 c-5 -9 -8 11 -7 50 l1 65 7 -50 c4 -27 3 -57 -1 -65z"/>
<path d="M2906 1144 c-9 -25 -8 -27 18 -20 15 4 26 1 29 -7 3 -9 7 -9 19 0 8
7 18 10 22 6 4 -4 4 0 0 10 -7 20 -21 22 -26 5 -3 -9 -11 -8 -30 4 -23 15 -27
16 -32 2z"/>
<path d="M358 1119 c-18 -18 -26 -26 -16 -20 9 7 29 14 44 17 33 6 44 12 44
25 0 20 -41 7 -72 -22z"/>
<path d="M1750 1140 c0 -5 5 -10 10 -10 6 0 10 5 10 10 0 6 -4 10 -10 10 -5 0
-10 -4 -10 -10z"/>
<path d="M1885 1140 c3 -5 13 -10 21 -10 8 0 12 5 9 10 -3 6 -13 10 -21 10 -8
0 -12 -4 -9 -10z"/>
<path d="M2539 1133 c-12 -16 -12 -17 1 -7 8 6 22 14 30 17 13 5 12 6 -1 6 -9
1 -23 -7 -30 -16z"/>
<path d="M45 1120 c-10 -11 -15 -23 -10 -28 4 -4 10 -1 12 6 3 6 12 12 21 12
13 0 14 -2 4 -9 -9 -5 4 -8 32 -7 25 0 46 4 46 8 0 4 -7 8 -15 8 -9 0 -29 7
-44 15 -26 13 -30 13 -46 -5z"/>
<path d="M955 1110 c-31 -16 -64 -30 -74 -31 -12 0 -11 -2 4 -8 14 -6 28 -2
44 10 13 11 29 19 37 19 7 0 14 6 17 13 3 9 9 8 22 -4 15 -15 14 -17 -23 -23
-22 -3 -42 -13 -46 -21 -8 -23 -77 -20 -83 3 -2 10 -13 24 -24 30 -18 11 -19
10 -14 -11 10 -37 -17 -53 -56 -33 -37 19 -49 20 -49 6 0 -5 7 -10 15 -10 8 0
15 -4 15 -10 0 -5 7 -7 16 -3 9 3 19 1 23 -6 5 -8 14 -5 29 9 12 12 28 17 38
13 14 -5 13 -8 -7 -20 l-24 -14 25 7 c14 3 43 9 65 11 22 3 43 11 47 17 5 8 8
7 8 -2 0 -7 5 -10 11 -7 6 4 8 13 5 21 -5 13 14 18 61 17 6 0 9 6 6 13 -3 8
-9 12 -13 9 -5 -3 -11 -1 -15 5 -3 5 1 10 10 10 9 0 13 5 10 10 -9 15 -18 13
-80 -20z"/>
<path d="M1853 1127 c4 -11 -9 -14 -58 -13 -43 1 -61 -3 -58 -10 3 -8 20 -10
46 -7 23 2 68 5 100 5 37 0 57 4 57 12 0 8 -12 11 -35 8 -21 -3 -35 0 -35 7 0
6 -5 11 -11 11 -6 0 -9 -6 -6 -13z"/>
<path d="M2458 1133 c7 -3 16 -2 19 1 4 3 -2 6 -13 5 -11 0 -14 -3 -6 -6z"/>
<path d="M820 1125 c0 -2 11 -10 24 -19 25 -16 56 -13 56 6 0 6 -6 5 -15 -2
-8 -6 -20 -8 -26 -4 -9 5 -7 10 7 15 14 5 11 7 -13 6 -18 0 -33 -1 -33 -2z"/>
<path d="M1384 1116 c-16 -12 -14 -13 14 -12 33 1 42 10 18 19 -8 3 -22 0 -32
-7z"/>
<path d="M1605 1120 c3 -5 11 -10 16 -10 6 0 7 5 4 10 -3 6 -11 10 -16 10 -6
0 -7 -4 -4 -10z"/>
<path d="M2840 1120 c0 -5 9 -10 19 -10 11 0 23 5 26 10 4 6 -5 10 -19 10 -14
0 -26 -4 -26 -10z"/>
<path d="M0 1109 c0 -5 5 -7 10 -4 5 3 10 8 10 11 0 2 -4 4 -10 4 -5 0 -10 -5
-10 -11z"/>
<path d="M305 1110 c-3 -5 -1 -10 4 -10 6 0 11 5 11 10 0 6 -2 10 -4 10 -3 0
-8 -4 -11 -10z"/>
<path d="M520 1110 c0 -5 9 -10 21 -10 11 0 17 5 14 10 -3 6 -13 10 -21 10 -8
0 -14 -4 -14 -10z"/>
<path d="M1160 1105 c-14 -16 -3 -20 19 -6 8 5 9 11 3 15 -5 3 -15 -1 -22 -9z"/>
<path d="M1219 1118 c-10 -33 -7 -37 17 -21 13 8 24 17 24 19 0 4 -40 6 -41 2z"/>
<path d="M1670 1110 c0 -5 6 -10 14 -10 9 0 12 -7 9 -21 -4 -16 -8 -18 -14 -7
-6 8 -12 9 -16 3 -10 -13 -45 -16 -37 -3 4 6 -2 7 -17 2 -36 -11 -79 -12 -79
-1 0 5 -6 5 -13 -2 -18 -14 -107 -23 -107 -11 0 6 10 10 22 10 17 0 19 3 10
12 -9 9 -17 7 -34 -9 -17 -16 -27 -19 -40 -12 -11 6 -18 6 -18 1 0 -5 -9 -12
-20 -15 -22 -6 -28 8 -7 16 8 4 9 6 0 6 -6 1 -18 -6 -27 -14 -17 -17 -66 -17
-59 0 2 7 -3 12 -12 12 -8 0 -15 -6 -15 -13 0 -9 -10 -12 -32 -10 -21 3 -40
-2 -50 -11 -17 -15 -18 -14 -19 3 0 18 -1 18 -9 -1 -5 -11 -9 -14 -9 -7 -1 6
-4 12 -8 11 -20 -3 -52 14 -46 25 4 8 2 7 -7 -1 -7 -6 -19 -9 -26 -6 -8 3 -14
0 -14 -5 0 -6 16 -14 35 -18 38 -7 52 -19 35 -29 -5 -3 -10 -31 -10 -62 0 -69
9 -64 15 7 6 62 10 68 33 53 14 -8 23 -7 40 7 16 13 41 18 99 19 43 1 148 6
233 11 85 5 175 10 199 10 38 0 43 2 38 20 -4 14 0 20 11 20 11 0 6 6 -12 15
-34 18 -36 18 -36 5z"/>
<path d="M480 1100 c0 -5 7 -10 15 -10 8 0 15 5 15 10 0 6 -7 10 -15 10 -8 0
-15 -4 -15 -10z"/>
<path d="M1278 1103 c7 -3 16 -2 19 1 4 3 -2 6 -13 5 -11 0 -14 -3 -6 -6z"/>
<path d="M406 1070 c7 -33 -6 -43 -62 -44 -18 -1 -29 -5 -26 -10 3 -5 -2 -7
-11 -3 -10 3 -17 3 -17 -2 0 -13 -36 -20 -51 -10 -8 5 -17 3 -21 -4 -6 -9 -8
-9 -8 1 0 6 -4 12 -10 12 -5 0 -7 -7 -3 -16 4 -11 0 -15 -18 -13 -40 4 -60 -1
-54 -11 3 -5 -1 -10 -10 -10 -9 0 -14 4 -11 9 3 5 -2 12 -11 16 -10 3 -19 1
-21 -4 -2 -6 -8 -9 -13 -5 -5 3 -9 -2 -9 -10 0 -20 5 -20 26 2 16 15 17 15 12
0 -13 -34 3 -31 277 45 22 6 46 15 52 20 7 5 22 7 34 4 15 -4 19 -2 15 10 -3
8 -6 17 -6 19 0 3 -4 3 -8 0 -4 -2 -14 -1 -22 5 -11 6 -12 9 -2 9 7 0 10 5 7
10 -3 6 -13 10 -20 10 -11 0 -13 -8 -9 -30z"/>
<path d="M1485 1090 c3 -5 8 -10 11 -10 2 0 4 5 4 10 0 6 -5 10 -11 10 -5 0
-7 -4 -4 -10z"/>
<path d="M2875 1091 c6 -10 -14 -15 -42 -12 -19 3 -16 -16 3 -23 22 -9 26 -8
18 5 -4 7 -1 10 7 7 8 -3 22 1 32 10 22 20 33 9 12 -12 -25 -25 -2 -19 29 7
l27 23 -47 3 c-30 1 -44 -2 -39 -8z"/>
<path d="M29 1071 c14 -10 32 -17 40 -14 12 3 11 0 -3 -11 -18 -14 -17 -15 18
-12 20 1 39 -1 42 -6 3 -5 9 -6 14 -3 5 3 11 2 14 -3 2 -4 -5 -9 -16 -9 -12
-1 -26 -7 -32 -13 -14 -14 36 -3 73 16 l26 14 -25 0 c-14 0 -34 6 -45 14 -11
8 -45 21 -75 30 -54 16 -55 16 -31 -3z"/>
<path d="M756 1082 c-3 -6 -1 -14 5 -17 14 -9 20 -2 10 14 -6 8 -11 9 -15 3z"/>
<path d="M1280 1080 c-13 -8 -12 -10 3 -10 9 0 17 5 17 10 0 12 -1 12 -20 0z"/>
<path d="M1848 1083 c12 -2 30 -2 40 0 9 3 -1 5 -23 4 -22 0 -30 -2 -17 -4z"/>
<path d="M2630 1080 c0 -5 5 -10 11 -10 5 0 7 5 4 10 -3 6 -8 10 -11 10 -2 0
-4 -4 -4 -10z"/>
<path d="M2964 1079 c-9 -15 -2 -18 20 -9 17 6 18 7 3 13 -9 3 -19 2 -23 -4z"/>
<path d="M210 1065 c-7 -8 -8 -15 -2 -15 5 0 15 7 22 15 7 8 8 15 2 15 -5 0
-15 -7 -22 -15z"/>
<path d="M346 1071 c-4 -6 -13 -8 -20 -5 -8 3 -17 1 -21 -5 -4 -7 0 -8 11 -4
12 5 15 3 9 -6 -6 -10 -3 -11 13 -2 11 6 28 8 38 4 12 -4 15 -2 12 8 -6 17
-34 24 -42 10z"/>
<path d="M474 1064 c3 -9 6 -23 6 -32 0 -13 2 -14 8 -4 7 9 15 10 35 3 14 -6
28 -7 31 -3 6 10 -30 52 -46 52 -10 0 -9 -3 2 -10 12 -8 10 -10 -8 -10 -13 0
-20 4 -17 10 3 6 1 10 -5 10 -7 0 -9 -7 -6 -16z"/>
<path d="M573 1073 c-13 -2 -23 -9 -23 -15 0 -5 7 -7 16 -4 9 3 22 6 30 6 8 0
14 5 14 10 0 6 -3 9 -7 9 -5 -1 -18 -4 -30 -6z"/>
<path d="M2670 1060 c0 -19 3 -21 12 -12 9 9 9 15 0 24 -9 9 -12 7 -12 -12z"/>
<path d="M0 1056 c0 -3 9 -10 20 -16 11 -6 20 -8 20 -6 0 3 -9 10 -20 16 -11
6 -20 8 -20 6z"/>
<path d="M1903 1053 c9 -2 25 -2 35 0 9 3 1 5 -18 5 -19 0 -27 -2 -17 -5z"/>
<path d="M2616 1044 c-3 -7 5 -9 20 -6 13 2 24 8 24 13 0 12 -39 6 -44 -7z"/>
<path d="M250 1035 c-8 -9 -9 -15 -2 -15 6 0 14 5 17 10 4 6 11 8 16 5 5 -4 9
-1 9 4 0 16 -26 13 -40 -4z"/>
<path d="M1738 1043 c6 -2 18 -2 25 0 6 3 1 5 -13 5 -14 0 -19 -2 -12 -5z"/>
<path d="M2945 1020 c3 -5 10 -10 16 -10 5 0 9 5 9 10 0 6 -7 10 -16 10 -8 0
-12 -4 -9 -10z"/>
<path d="M18 1013 c6 -2 18 -2 25 0 6 3 1 5 -13 5 -14 0 -19 -2 -12 -5z"/>
<path d="M78 1013 c7 -3 16 -2 19 1 4 3 -2 6 -13 5 -11 0 -14 -3 -6 -6z"/>
<path d="M691 1008 c-57 -21 -13 -33 52 -14 39 12 78 -27 69 -69 -5 -26 -3
-27 23 -21 27 7 28 6 22 -28 -6 -35 16 -71 31 -50 7 9 27 16 50 17 6 0 12 5
12 11 0 7 3 6 8 -1 4 -7 9 12 10 42 l2 55 -71 0 c-62 0 -70 2 -65 18 7 21 -4
38 -24 41 -50 6 -102 6 -119 -1z m243 -94 c8 -20 -2 -54 -15 -54 -5 0 -10 6
-11 13 -4 35 -4 43 -1 50 7 12 21 8 27 -9z m-49 -54 c-4 -12 -9 -19 -12 -17
-3 3 -2 15 2 27 4 12 9 19 12 17 3 -3 2 -15 -2 -27z"/>
<path d="M2971 1001 l-24 -6 24 -12 c21 -9 25 -8 25 8 0 11 0 19 -1 18 0 -1
-11 -4 -24 -8z"/>
<path d="M575 990 c3 -5 8 -10 11 -10 2 0 4 5 4 10 0 6 -5 10 -11 10 -5 0 -7
-4 -4 -10z"/>
<path d="M2752 975 c-7 -15 -8 -25 -2 -25 6 0 10 5 10 11 0 7 10 9 25 5 14 -4
25 -2 25 3 0 6 9 8 20 6 11 -2 18 0 15 5 -3 4 -19 6 -36 3 -18 -2 -35 0 -39 6
-4 7 -11 2 -18 -14z"/>
<path d="M515 979 c-4 -6 -5 -12 -2 -15 2 -3 7 2 10 11 7 17 1 20 -8 4z"/>
<path d="M2910 986 c0 -2 7 -6 15 -10 8 -3 15 -1 15 4 0 6 -7 10 -15 10 -8 0
-15 -2 -15 -4z"/>
<path d="M20 970 c-8 -5 -12 -11 -9 -14 2 -3 11 -1 19 4 8 5 12 11 9 14 -2 3
-11 1 -19 -4z"/>
<path d="M305 970 c-3 -5 -1 -10 4 -10 6 0 11 5 11 10 0 6 -2 10 -4 10 -3 0
-8 -4 -11 -10z"/>
<path d="M362 963 c-7 -10 -10 -12 -7 -5 3 6 1 12 -4 12 -6 0 -11 -7 -11 -15
0 -8 3 -15 8 -15 15 0 34 18 31 29 -3 7 -9 4 -17 -6z"/>
<path d="M600 970 c-9 -6 -10 -10 -3 -10 6 0 15 5 18 10 8 12 4 12 -15 0z"/>
<path d="M726 970 c-16 -5 -33 -15 -37 -22 -7 -11 -9 -11 -9 0 0 7 -4 10 -10
7 -19 -11 -10 -23 20 -27 17 -3 30 -2 30 1 1 17 19 31 33 25 9 -3 15 -10 12
-14 -6 -9 -22 -84 -30 -134 -4 -22 -2 -26 8 -18 10 8 17 7 29 -6 52 -58 190
-148 210 -136 11 7 10 -98 -2 -116 -13 -21 -238 -29 -251 -9 -5 8 -9 60 -9
116 0 87 2 102 15 97 9 -4 15 0 15 10 0 9 -6 16 -14 16 -8 0 -17 12 -19 28 -2
15 -5 -38 -6 -119 -1 -101 3 -149 11 -157 15 -15 221 -16 249 -1 11 5 24 21
29 34 6 16 15 23 25 19 13 -5 15 13 14 142 -1 148 -1 150 -33 209 l-31 60 -50
1 c-50 1 -50 1 -5 -3 66 -6 70 -16 68 -167 -1 -112 -2 -120 -7 -56 -5 62 -9
75 -24 78 -20 4 -81 -18 -73 -26 3 -2 -1 -14 -9 -25 -9 -13 -12 -31 -8 -46 l6
-26 -35 30 c-19 17 -33 33 -31 38 2 4 -3 7 -11 7 -9 0 -16 5 -16 10 0 6 7 10
15 10 8 0 15 5 15 10 0 7 -13 8 -35 4 -35 -6 -48 7 -23 22 7 4 8 3 4 -4 -4 -7
-2 -12 4 -12 8 0 9 11 5 33 -5 24 -4 28 5 17 8 -12 9 -10 5 10 -3 14 -2 37 4
50 8 21 10 16 12 -35 2 -54 3 -56 6 -16 5 52 -4 94 -17 86 -6 -3 -10 -1 -10 4
0 13 -4 13 -44 1z m304 -264 c0 -105 -3 -137 -11 -129 -8 8 -13 67 -16 160 -4
135 -3 146 11 129 13 -16 16 -48 16 -160z m-82 100 c-24 -18 -23 -29 2 -16 18
10 19 7 17 -55 -1 -36 -4 -65 -7 -65 -3 0 -14 14 -23 30 -10 17 -16 30 -13 30
2 0 1 13 -4 29 -9 31 -3 45 20 54 24 9 26 7 8 -7z m-36 -78 c4 -35 2 -45 -7
-41 -13 4 -26 80 -17 96 8 16 20 -8 24 -55z"/>
<path d="M1088 958 c0 -13 -1 -36 0 -53 0 -16 1 -95 2 -175 1 -105 5 -157 17
-187 26 -69 16 -73 -197 -80 l-181 -6 -33 32 c-18 17 -35 29 -38 25 -4 -3 2
-24 12 -47 10 -23 22 -64 25 -91 5 -28 11 -43 15 -36 4 7 4 27 0 44 -15 59
-20 97 -12 92 23 -14 63 -87 71 -130 8 -46 8 -48 -13 -42 -11 3 -37 6 -57 6
-34 0 -37 2 -43 38 -23 148 -202 209 -315 106 -28 -24 -48 -34 -72 -34 -53 -1
-69 -19 -69 -80 0 -43 2 -50 13 -41 8 6 16 9 19 6 2 -3 5 2 5 10 0 8 -4 12 -9
9 -4 -3 -8 2 -8 10 0 9 5 16 10 16 6 0 10 8 10 18 0 25 19 42 47 42 23 0 23
-1 9 -28 -8 -16 -16 -42 -18 -58 -2 -23 -9 -30 -33 -35 -25 -5 -22 -7 18 -8
45 -1 47 -2 47 -31 0 -38 21 -90 44 -109 21 -18 2 -33 -31 -24 -13 3 -23 1
-23 -4 0 -6 21 -10 48 -11 26 -1 82 -4 124 -8 43 -3 86 -3 95 1 10 4 53 7 96
6 70 -3 81 0 112 23 18 14 39 42 46 61 12 31 17 35 50 35 25 0 39 -5 43 -16 5
-13 1 -15 -19 -10 -18 5 -25 2 -25 -9 0 -8 5 -15 11 -15 18 0 49 20 49 33 0 9
40 13 149 15 142 2 149 2 154 -18 6 -23 35 -27 43 -5 4 8 13 15 21 15 8 0 12
4 8 9 -8 13 10 22 29 15 9 -3 13 -11 9 -18 -5 -8 -3 -8 8 0 8 5 30 10 49 9 19
-1 46 3 60 9 14 6 68 13 120 16 l95 5 27 -46 c41 -70 76 -83 211 -76 87 4 114
9 135 24 43 32 64 68 65 112 2 28 6 40 15 36 6 -2 12 3 12 11 0 9 -6 14 -13
11 -8 -3 -18 7 -24 24 -10 26 -9 29 8 29 11 0 18 -4 15 -8 -2 -4 -1 -14 3 -21
6 -9 11 -4 15 16 18 70 101 133 176 133 81 0 174 -77 186 -152 4 -21 11 -35
15 -32 12 7 7 -19 -5 -28 -5 -3 -9 -20 -9 -37 0 -16 -4 -28 -8 -25 -4 2 -13
-4 -19 -15 -12 -23 -32 -35 -73 -45 -17 -4 -26 -3 -23 3 6 10 -18 9 -71 -3
-21 -5 -33 -4 -33 3 0 6 7 7 17 4 11 -4 14 -3 9 5 -6 11 26 18 57 13 4 0 7 3
7 7 0 5 11 14 26 20 26 13 54 65 54 105 0 42 -49 103 -94 118 -23 7 -47 11
-55 10 -8 -1 -10 2 -6 9 6 9 2 9 -12 1 -11 -6 -23 -7 -27 -4 -3 3 -6 -1 -6
-11 0 -13 -5 -16 -22 -10 -19 6 -21 4 -11 -7 9 -11 7 -19 -7 -37 -13 -15 -20
-18 -23 -10 -3 7 -3 -3 0 -22 3 -26 2 -31 -6 -20 -14 21 -24 6 -28 -43 -5 -58
33 -116 92 -140 36 -15 58 -17 129 -11 100 8 135 25 161 80 15 33 17 49 9 106
-5 36 -6 79 -2 94 5 17 3 31 -3 35 -6 4 -9 15 -6 25 4 13 -5 32 -27 58 l-34
39 -398 -17 -399 -17 -32 -37 c-20 -22 -33 -48 -33 -64 0 -16 -4 -28 -10 -28
-5 0 -10 15 -10 33 1 23 11 42 38 70 44 45 14 41 501 63 l344 15 29 -28 c34
-32 78 -90 60 -79 -8 5 -12 0 -12 -13 0 -11 5 -23 10 -26 6 -3 10 -28 10 -56
0 -53 3 -57 26 -34 9 8 11 15 5 15 -6 0 -11 5 -11 10 0 6 19 10 43 10 60 -1
298 18 304 24 3 3 2 26 -1 51 l-7 46 -135 -2 c-110 -1 -134 -4 -134 -16 0 -8
5 -11 10 -8 6 3 10 -1 10 -9 0 -17 -16 -30 -23 -19 -3 5 -8 23 -12 41 l-7 32
104 0 c96 0 104 1 104 19 0 18 -6 19 -58 15 -41 -3 -58 -1 -58 8 0 6 -6 3 -14
-7 -9 -13 -26 -19 -50 -19 -28 0 -36 -4 -36 -18 0 -13 -8 -18 -30 -18 -23 0
-28 3 -23 17 5 12 2 15 -8 11 -9 -4 -20 2 -27 13 -8 12 -8 19 -2 19 5 0 10 5
10 10 0 6 -6 10 -14 10 -8 0 -18 5 -21 10 -4 6 6 10 23 10 25 0 31 -6 42 -40
16 -48 33 -54 19 -8 -13 48 -11 56 14 61 12 2 -3 3 -33 1 -447 -28 -1097 -51
-975 -34 33 4 95 8 138 9 45 1 77 5 77 11 0 7 -32 8 -92 4 -51 -3 -149 -9
-218 -13 -73 -5 -104 -9 -75 -11 47 -3 45 -4 -25 -10 -41 -4 -117 -8 -167 -9
-51 0 -93 -4 -93 -8 1 -5 10 -24 21 -43 19 -33 21 -19 4 23 -7 17 -1 18 91 17
55 -1 159 1 232 5 75 4 132 4 131 -1 0 -5 -10 -27 -22 -49 -20 -36 -27 -41
-69 -45 -37 -5 -48 -3 -52 10 -3 13 -4 13 -5 -1 -1 -14 -23 -17 -144 -23 -148
-7 -194 -1 -194 28 0 8 4 13 9 10 11 -7 10 11 -4 41 -6 14 -17 25 -25 25 -8 0
-13 13 -13 36 0 21 4 33 10 29 6 -4 8 -10 5 -14 -2 -5 6 -7 18 -6 12 1 30 3
39 4 11 1 15 6 12 16 -5 12 7 15 67 17 41 0 85 2 99 3 14 1 108 6 210 10 102
4 204 11 228 15 37 7 42 5 42 -11 0 -11 5 -19 11 -19 5 0 7 5 4 10 -12 19 0
21 273 29 22 1 32 5 30 13 -5 13 -3 13 -233 4 -174 -7 -286 -15 -297 -23 -5
-2 -8 1 -8 7 0 8 -7 9 -17 5 -10 -3 -70 -8 -133 -10 -94 -4 -249 -14 -295 -20
-5 -1 -16 3 -22 8 -8 6 -13 6 -13 -1 0 -5 -8 -12 -19 -15 -14 -3 -19 1 -18 17
0 11 -1 80 -3 153 -1 72 1 136 5 142 3 6 1 11 -4 11 -6 0 -12 -10 -13 -22z
m72 -323 c0 -8 -4 -15 -10 -15 -5 0 -10 7 -10 15 0 8 5 15 10 15 6 0 10 -7 10
-15z m1322 -94 c16 -19 15 -20 -45 -25 -34 -3 -165 -10 -292 -16 -447 -20
-480 -22 -491 -31 -6 -5 -9 -21 -6 -35 4 -20 1 -25 -9 -22 -29 10 -1 88 32 88
11 0 22 6 25 14 6 15 89 21 399 32 99 4 182 8 184 10 2 2 45 4 95 4 78 0 94
-3 108 -19z m29 -48 c0 -10 4 -40 8 -66 l8 -48 -31 38 c-17 20 -41 46 -54 57
-21 19 -22 21 -5 28 36 14 73 9 74 -9z m239 7 c0 -5 -13 -10 -30 -10 -16 0
-30 5 -30 10 0 6 14 10 30 10 17 0 30 -4 30 -10z m75 0 c4 -6 -7 -10 -25 -10
-18 0 -29 4 -25 10 3 6 15 10 25 10 10 0 22 -4 25 -10z m75 2 c0 -4 -13 -9
-30 -10 -16 -1 -30 2 -30 8 0 5 14 10 30 10 17 0 30 -4 30 -8z m-273 -19 c4
-9 2 -18 -4 -20 -6 -2 -9 -13 -6 -23 4 -13 0 -20 -10 -20 -15 0 -29 44 -20 67
7 19 32 16 40 -4z m-2104 -5 c-2 -5 -28 -8 -57 -8 -43 0 -57 -4 -76 -25 -22
-24 -50 -33 -50 -17 0 8 33 31 70 48 27 13 121 14 113 2z m1660 6 c12 -13 -56
-84 -80 -84 -30 0 -37 -18 -22 -56 7 -16 11 -33 10 -39 -3 -11 -9 -54 -10 -70
-2 -20 -53 -66 -68 -61 -8 3 -24 -1 -36 -9 -36 -25 -39 -17 -8 23 16 20 32 55
36 77 l6 40 -16 -34 c-8 -18 -15 -38 -15 -44 0 -19 -63 -67 -88 -67 -21 0 -22
1 -8 16 9 8 20 13 25 10 10 -7 60 48 62 67 7 85 -15 131 -78 159 -25 11 -54
18 -64 15 -10 -3 -17 -1 -13 4 6 11 -4 11 -31 -1 -11 -5 -14 -9 -7 -9 15 -1
-55 -71 -71 -71 -7 0 -7 -4 1 -12 7 -7 12 -26 12 -44 0 -50 38 -96 95 -116
l50 -17 -42 -1 c-35 0 -47 6 -72 32 -17 18 -31 39 -31 46 0 7 -11 17 -25 22
-37 14 -35 72 5 132 45 68 122 99 196 79 46 -12 115 -61 110 -76 -2 -6 5 -12
16 -12 16 -2 13 6 -18 40 -21 23 -42 45 -47 48 -5 4 35 7 89 8 54 1 100 4 103
6 6 7 27 6 34 -1z m675 -10 c34 -5 52 -11 52 -20 0 -10 -16 -14 -57 -15 -51
-1 -161 -1 -172 1 -2 0 2 7 9 15 7 8 15 13 19 11 3 -2 15 0 26 5 25 10 56 10
123 3z m-1279 -74 c-4 -3 10 -6 32 -6 36 -1 40 1 47 30 7 26 14 32 40 34 l33
3 -33 -45 c-19 -25 -42 -45 -53 -46 -15 -1 -17 -3 -5 -8 17 -8 25 -52 9 -52
-5 0 -7 -4 -4 -10 7 -11 8 -11 -58 -16 -46 -3 -48 -2 -42 19 4 15 0 11 -14
-11 -12 -19 -26 -30 -32 -26 -6 4 -15 0 -20 -7 -4 -7 -11 -10 -14 -7 -4 4 2
17 14 29 11 12 18 25 15 28 -3 3 -8 0 -12 -6 -4 -7 -21 -17 -37 -23 -28 -11
-28 -13 -10 -20 11 -5 15 -9 8 -9 -23 -2 -43 12 -43 29 0 41 -11 51 -46 44
-22 -4 -34 -2 -34 5 0 6 -7 11 -15 11 -8 0 -15 5 -15 10 0 6 6 10 13 10 8 0 7
3 -3 9 -35 23 -32 -21 3 -50 11 -8 18 -21 16 -28 -3 -8 -11 -5 -26 9 -12 11
-27 20 -33 20 -7 0 -9 8 -5 20 4 11 2 20 -4 20 -21 0 -10 -37 19 -65 36 -35
37 -48 5 -65 -19 -10 -28 -10 -39 -1 -8 6 -31 13 -52 15 -22 2 -45 4 -53 5
-10 1 -12 19 -9 81 4 75 -3 105 -15 60 -3 -11 -11 -20 -17 -20 -10 0 -10 3 0
15 10 12 10 15 -4 15 -13 0 -16 -12 -16 -75 0 -46 -4 -75 -11 -75 -5 0 -7 -4
-4 -10 4 -6 -42 -10 -129 -10 -84 0 -136 4 -136 10 0 6 5 10 10 10 6 0 10 25
10 55 l0 55 98 1 c53 1 111 5 127 9 17 4 -25 5 -92 2 -96 -4 -124 -2 -135 9
-12 12 4 14 118 14 115 0 135 2 153 19 11 10 18 22 16 27 -16 26 81 17 138
-12 11 -6 17 -5 17 1 0 5 13 10 30 10 24 0 28 -3 23 -17 -5 -15 -3 -15 9 1 11
14 30 20 69 22 30 1 78 3 107 5 28 1 52 7 52 12 0 6 10 -5 23 -24 13 -19 20
-36 16 -39z m1082 47 c-1 -4 -1 -16 -1 -28 0 -11 -4 -17 -10 -14 -14 8 -13 58
1 53 6 -2 10 -7 10 -11z m-2091 -22 c34 -18 70 -73 70 -109 0 -15 5 -25 13
-23 8 1 13 -14 15 -47 3 -38 -2 -56 -23 -87 -14 -22 -30 -39 -36 -39 -5 0 2
17 15 37 16 23 22 39 15 43 -6 4 -7 18 -3 33 3 16 2 27 -4 27 -5 0 -10 15 -9
34 1 34 -16 66 -35 66 -5 0 0 -15 12 -34 13 -22 17 -37 10 -41 -5 -3 -10 2
-10 12 -1 25 -20 47 -59 67 -42 22 -114 14 -139 -15 -9 -10 -20 -19 -25 -19
-4 0 4 12 18 27 22 25 32 28 90 28 47 0 68 -4 75 -15 5 -8 12 -11 16 -7 4 4
-1 16 -11 27 -14 16 -20 17 -27 8 -5 -9 -8 -9 -8 -1 0 8 -18 10 -55 8 -46 -2
-61 -8 -84 -32 -33 -34 -46 -63 -28 -63 8 0 11 -15 9 -50 -4 -46 -1 -53 31
-85 19 -19 44 -35 55 -35 33 0 33 -15 1 -16 -16 -1 -29 2 -29 7 0 5 -8 6 -17
3 -15 -5 -16 -4 -3 5 13 9 13 11 -2 11 -9 0 -19 -6 -22 -12 -2 -7 -4 -2 -3 12
1 15 -3 25 -12 25 -7 0 -20 10 -29 23 -12 19 -12 21 -1 17 11 -4 14 2 13 22
-1 16 -3 34 -3 41 -1 6 -6 12 -11 12 -6 0 -10 -6 -9 -12 1 -7 0 -20 -1 -28 -2
-18 -18 26 -19 56 -1 27 64 103 103 120 41 18 120 17 156 -1z m449 -10 c2 -3
-44 -5 -103 -5 -59 0 -105 4 -102 9 5 8 196 4 205 -4z m1374 -24 c52 -51 34
-143 -33 -171 -70 -29 -150 24 -150 99 0 99 112 143 183 72z m-465 -26 c40
-47 21 -139 -35 -164 -45 -21 -83 -13 -119 23 -40 40 -45 83 -14 133 34 57
121 61 168 8z m599 -17 c-3 -8 -6 -5 -6 6 -1 11 2 17 5 13 3 -3 4 -12 1 -19z
m-1988 -2 c30 -16 51 -53 51 -94 0 -19 3 -23 9 -13 7 11 10 9 15 -7 11 -35 -6
-98 -24 -87 -5 3 -11 1 -15 -4 -3 -6 -12 -8 -20 -4 -8 3 -15 0 -15 -6 0 -6 -9
-11 -20 -11 -33 0 -23 17 19 34 22 8 45 25 51 37 18 32 4 34 -26 4 -37 -37
-70 -48 -110 -35 -41 14 -64 49 -64 97 0 82 75 127 149 89z m569 -53 c-2 -14
-7 -20 -14 -15 -6 4 -9 24 -6 47 4 37 5 38 14 15 5 -13 8 -34 6 -47z m1079 21
c-3 -4 0 -22 9 -42 15 -37 15 -45 -2 -34 -18 12 -34 70 -21 76 18 7 21 7 14 0z
m-807 -28 c0 -19 -4 -23 -20 -19 -11 3 -20 10 -20 15 0 5 5 6 10 3 6 -3 10 1
10 9 0 9 5 16 10 16 6 0 10 -11 10 -24z m-637 -28 c-2 -5 3 -8 11 -8 9 0 13 6
10 14 -3 8 -1 17 5 21 7 4 11 -10 11 -39 0 -25 5 -46 10 -46 18 0 11 -20 -16
-45 -24 -22 -118 -45 -131 -31 -9 9 17 35 39 38 12 2 23 9 24 16 1 7 0 8 -3 2
-2 -5 -12 -10 -21 -10 -10 0 -13 3 -7 8 6 4 11 23 11 42 2 64 2 64 19 50 12
-10 15 -9 15 4 0 14 2 15 14 4 8 -7 12 -16 9 -20z m365 -10 c-3 -7 -12 -14
-21 -16 -12 -2 -15 1 -11 12 7 19 38 22 32 4z m247 2 c3 -5 2 -10 -4 -10 -5 0
-13 5 -16 10 -3 6 -2 10 4 10 5 0 13 -4 16 -10z m885 -41 c0 -6 -5 -7 -12 -3
-8 5 -9 2 -5 -9 9 -24 -10 -21 -23 3 -9 16 -8 18 5 14 8 -4 15 -1 15 6 0 6 5
8 10 5 6 -3 10 -11 10 -16z"/>
<path d="M1897 442 c1 -8 3 -16 3 -18 0 -2 6 -4 13 -4 16 0 52 -40 61 -67 7
-23 26 -32 26 -13 0 6 -4 10 -10 10 -5 0 -10 5 -10 10 0 21 -54 91 -66 86 -7
-3 -15 -2 -17 2 -2 4 -2 1 0 -6z"/>
<path d="M2030 220 c-11 -22 -17 -40 -13 -40 5 0 16 18 25 40 21 52 14 52 -12
0z"/>
<path d="M1270 411 c0 -12 5 -21 10 -21 6 0 10 6 10 14 0 8 -4 18 -10 21 -5 3
-10 -3 -10 -14z"/>
<path d="M1237 393 c-4 -3 -7 -11 -7 -17 0 -6 5 -5 12 2 6 6 9 14 7 17 -3 3
-9 2 -12 -2z"/>
<path d="M1490 355 c0 -8 2 -15 4 -15 2 0 6 7 10 15 3 8 1 15 -4 15 -6 0 -10
-7 -10 -15z"/>
<path d="M1540 354 c0 -13 3 -14 15 -4 8 6 18 10 22 7 4 -2 17 -1 28 4 15 6 9
8 -22 8 -33 1 -43 -3 -43 -15z"/>
<path d="M2310 400 c0 -5 5 -10 10 -10 6 0 10 5 10 10 0 6 -4 10 -10 10 -5 0
-10 -4 -10 -10z"/>
<path d="M2260 380 c0 -5 7 -10 15 -10 12 0 13 -4 5 -19 -13 -25 -13 -61 0
-61 14 0 12 -28 -2 -33 -7 -2 -10 -8 -6 -12 4 -4 15 0 24 10 14 13 19 14 25 3
8 -11 11 -11 18 1 7 11 10 10 18 -4 7 -12 13 -14 17 -6 4 6 2 11 -3 11 -13 0
-10 22 4 32 5 4 12 2 16 -4 4 -7 9 -7 13 1 4 6 2 11 -3 11 -6 0 -11 7 -11 15
0 8 5 15 10 15 6 0 10 5 10 11 0 6 -6 9 -14 6 -8 -3 -16 -1 -18 5 -2 6 -21 12
-43 13 -21 0 -41 7 -43 13 -4 14 -32 16 -32 2z m96 -33 c16 -1 4 -57 -16 -67
-20 -11 -60 13 -60 35 0 22 31 47 49 39 9 -3 21 -7 27 -7z"/>
<path d="M2320 340 c0 -6 7 -10 15 -10 8 0 15 2 15 4 0 2 -7 6 -15 10 -8 3
-15 1 -15 -4z"/>
<path d="M2303 313 c9 -2 23 -2 30 0 6 3 -1 5 -18 5 -16 0 -22 -2 -12 -5z"/>
<path d="M2360 380 c0 -5 5 -10 10 -10 6 0 10 5 10 10 0 6 -4 10 -10 10 -5 0
-10 -4 -10 -10z"/>
<path d="M2230 340 c0 -5 7 -10 15 -10 8 0 15 5 15 10 0 6 -7 10 -15 10 -8 0
-15 -4 -15 -10z"/>
<path d="M2230 295 c0 -2 9 -9 20 -15 16 -9 18 -8 14 5 -5 13 -34 22 -34 10z"/>
<path d="M2318 233 c7 -3 16 -2 19 1 4 3 -2 6 -13 5 -11 0 -14 -3 -6 -6z"/>
<path d="M1810 370 c0 -5 5 -10 10 -10 6 0 10 5 10 10 0 6 -4 10 -10 10 -5 0
-10 -4 -10 -10z"/>
<path d="M1865 370 c3 -5 8 -10 11 -10 2 0 4 5 4 10 0 6 -5 10 -11 10 -5 0 -7
-4 -4 -10z"/>
<path d="M1905 350 c3 -5 8 -10 11 -10 2 0 4 5 4 10 0 6 -5 10 -11 10 -5 0 -7
-4 -4 -10z"/>
<path d="M1776 342 c-3 -6 3 -16 16 -23 16 -9 23 -9 26 0 5 15 21 14 38 -4 14
-13 12 -15 -13 -16 -18 -1 -21 -3 -10 -6 28 -7 53 5 39 19 -17 17 -15 33 3 18
19 -16 19 -59 0 -66 -11 -5 -12 -11 -4 -25 5 -10 15 -19 22 -19 8 0 9 2 1 8
-12 8 -4 43 10 44 5 0 13 -6 17 -14 7 -10 9 -10 9 0 0 7 -7 15 -16 19 -13 5
-13 7 -2 14 11 8 11 10 0 18 -8 4 -14 12 -14 17 0 5 -4 8 -9 7 -5 -2 -9 1 -9
6 0 14 -49 10 -61 -5 -10 -12 -14 -12 -24 2 -8 12 -14 13 -19 6z"/>
<path d="M1801 288 c0 -9 9 -24 20 -32 13 -9 19 -21 16 -30 -4 -10 -1 -16 8
-16 21 0 19 36 -2 45 -16 7 -15 9 7 16 22 8 21 8 -7 4 -24 -3 -33 0 -36 13 -4
16 -5 16 -6 0z"/>
<path d="M1765 280 c3 -5 10 -10 16 -10 5 0 9 5 9 10 0 6 -7 10 -16 10 -8 0
-12 -4 -9 -10z"/>
<path d="M1790 240 c0 -5 5 -10 10 -10 6 0 10 5 10 10 0 6 -4 10 -10 10 -5 0
-10 -4 -10 -10z"/>
<path d="M480 340 c0 -5 5 -10 10 -10 6 0 10 5 10 10 0 6 -4 10 -10 10 -5 0
-10 -4 -10 -10z"/>
<path d="M520 320 c0 -5 4 -10 9 -10 6 0 13 5 16 10 3 6 -1 10 -9 10 -9 0 -16
-4 -16 -10z"/>
<path d="M470 309 c0 -19 12 -34 31 -41 11 -4 15 0 14 13 -2 22 -15 38 -15 18
-1 -10 -5 -8 -15 5 -11 14 -15 16 -15 5z"/>
<path d="M443 298 c-20 -27 2 -98 31 -98 8 0 8 3 0 8 -6 4 -13 15 -17 25 -5
13 -1 17 21 17 20 0 23 3 13 9 -8 5 -20 7 -28 4 -11 -4 -12 1 -7 21 7 28 2 33
-13 14z"/>
<path d="M405 290 c-3 -5 -1 -10 4 -10 6 0 11 5 11 10 0 6 -2 10 -4 10 -3 0
-8 -4 -11 -10z"/>
<path d="M547 284 c6 -15 23 -19 23 -5 0 5 -7 11 -14 14 -10 4 -13 1 -9 -9z"/>
<path d="M530 266 c0 -8 -8 -21 -17 -28 -20 -15 -28 -38 -13 -38 6 0 10 5 10
10 0 6 6 10 13 10 6 0 13 14 14 30 1 17 0 30 -2 30 -3 0 -5 -6 -5 -14z"/>
<path d="M400 240 c0 -5 5 -10 11 -10 5 0 7 5 4 10 -3 6 -8 10 -11 10 -2 0 -4
-4 -4 -10z"/>
<path d="M550 230 c0 -5 5 -10 10 -10 6 0 10 5 10 10 0 6 -4 10 -10 10 -5 0
-10 -4 -10 -10z"/>
<path d="M426 201 c-4 -5 -2 -12 3 -15 5 -4 12 -2 15 3 4 5 2 12 -3 15 -5 4
-12 2 -15 -3z"/>
<path d="M520 190 c0 -5 5 -10 10 -10 6 0 10 5 10 10 0 6 -4 10 -10 10 -5 0
-10 -4 -10 -10z"/>
<path d="M470 180 c0 -5 5 -10 10 -10 6 0 10 5 10 10 0 6 -4 10 -10 10 -5 0
-10 -4 -10 -10z"/>
<path d="M710 245 c0 -5 5 -17 10 -25 5 -8 10 -10 10 -5 0 6 -5 17 -10 25 -5
8 -10 11 -10 5z"/>
<path d="M740 200 c0 -5 5 -10 11 -10 5 0 7 5 4 10 -3 6 -8 10 -11 10 -2 0 -4
-4 -4 -10z"/>
<path d="M464 959 c-3 -6 -15 -9 -25 -6 -11 3 -17 1 -13 -4 3 -5 11 -9 18 -9
16 0 55 29 39 30 -6 0 -15 -5 -19 -11z"/>
<path d="M2945 960 c-4 -6 3 -10 14 -10 25 0 27 6 6 13 -8 4 -17 2 -20 -3z"/>
<path d="M220 950 c0 -5 5 -10 11 -10 5 0 7 5 4 10 -3 6 -8 10 -11 10 -2 0 -4
-4 -4 -10z"/>
<path d="M266 944 c-9 -24 -2 -26 12 -4 7 11 8 20 3 20 -5 0 -12 -7 -15 -16z"/>
<path d="M513 945 c-17 -7 -33 -13 -35 -12 -2 1 0 -2 5 -8 5 -6 18 -4 37 7 17
9 30 13 30 8 0 -6 4 -10 10 -10 5 0 7 7 4 15 -7 18 -10 18 -51 0z"/>
<path d="M2072 953 c-20 -4 -23 -10 -20 -46 2 -24 7 -40 13 -37 5 3 9 11 7 18
-4 17 35 15 42 -3 3 -8 13 -15 22 -15 16 0 16 2 -1 20 -11 13 -14 20 -6 20 7
0 11 10 9 23 -3 23 -22 29 -66 20z m48 -22 c0 -5 -11 -11 -25 -13 -17 -4 -25
-1 -25 8 0 8 11 14 25 14 14 0 25 -4 25 -9z"/>
<path d="M2900 950 c0 -5 7 -10 16 -10 8 0 12 5 9 10 -3 6 -10 10 -16 10 -5 0
-9 -4 -9 -10z"/>
<path d="M60 941 c0 -5 -9 -7 -21 -4 -12 4 -25 0 -30 -8 -16 -26 -9 -28 36
-12 25 8 42 19 39 24 -7 12 -24 12 -24 0z"/>
<path d="M1895 940 c-16 -4 -22 -8 -12 -9 13 -1 17 -10 17 -36 0 -19 5 -35 10
-35 6 0 10 16 10 35 0 24 5 35 15 35 8 0 15 5 15 10 0 11 -11 11 -55 0z"/>
<path d="M1972 938 c-7 -7 -12 -21 -12 -33 0 -12 5 -26 12 -33 14 -14 68 -16
68 -2 0 6 -11 10 -24 10 -14 0 -28 5 -31 10 -4 6 7 10 24 10 17 0 31 4 31 10
0 5 -13 7 -30 4 -41 -9 -39 13 3 25 l32 9 -30 1 c-17 1 -36 -4 -43 -11z"/>
<path d="M2430 930 c0 -11 4 -20 9 -20 5 0 7 9 4 20 -3 11 -7 20 -9 20 -2 0
-4 -9 -4 -20z"/>
<path d="M2460 930 c0 -12 7 -20 18 -20 14 0 15 2 2 10 -13 9 -13 11 0 20 13
8 12 10 -2 10 -11 0 -18 -8 -18 -20z"/>
<path d="M2790 940 c0 -5 5 -10 11 -10 5 0 7 5 4 10 -3 6 -8 10 -11 10 -2 0
-4 -4 -4 -10z"/>
<path d="M580 929 c0 -5 5 -7 10 -4 6 3 10 8 10 11 0 2 -4 4 -10 4 -5 0 -10
-5 -10 -11z"/>
<path d="M606 924 c-5 -14 -4 -15 9 -4 17 14 19 20 6 20 -5 0 -12 -7 -15 -16z"/>
<path d="M1694 923 c-18 -57 -21 -59 -28 -25 -4 17 -14 32 -21 32 -11 0 -11
-8 4 -42 23 -55 38 -58 47 -11 l7 38 14 -32 c7 -18 19 -33 26 -33 15 0 43 78
32 88 -9 9 -25 -19 -26 -48 -1 -22 -3 -21 -16 13 -17 40 -30 47 -39 20z"/>
<path d="M1797 898 c-16 -39 -15 -66 1 -42 14 20 41 24 51 6 5 -9 12 -14 15
-11 9 9 -26 89 -39 89 -7 0 -19 -19 -28 -42z m37 7 c3 -9 0 -15 -9 -15 -9 0
-12 6 -9 15 4 8 7 15 9 15 2 0 5 -7 9 -15z"/>
<path d="M2260 917 c0 -10 5 -15 10 -12 6 4 8 12 4 18 -3 7 1 4 10 -7 16 -20
45 -16 47 6 0 7 4 4 9 -7 8 -20 9 -20 9 1 1 18 -5 21 -44 20 -37 0 -45 -3 -45
-19z m60 3 c0 -5 -4 -10 -10 -10 -5 0 -10 5 -10 10 0 6 5 10 10 10 6 0 10 -4
10 -10z"/>
<path d="M2360 925 c0 -8 5 -16 10 -16 36 -5 45 -2 48 14 4 18 -17 20 -30 2
-5 -6 -8 -5 -8 3 0 6 -4 12 -10 12 -5 0 -10 -7 -10 -15z"/>
<path d="M2658 932 c-10 -2 -18 -8 -18 -13 0 -11 11 -11 30 1 18 11 11 18 -12
12z"/>
<path d="M2765 930 c3 -5 8 -10 11 -10 2 0 4 5 4 10 0 6 -5 10 -11 10 -5 0 -7
-4 -4 -10z"/>
<path d="M136 915 c-9 -26 -7 -32 5 -12 6 10 9 21 6 23 -2 3 -7 -2 -11 -11z"/>
<path d="M300 917 c0 -16 37 -20 46 -5 5 7 1 9 -9 5 -10 -3 -17 -2 -17 3 0 6
-4 10 -10 10 -5 0 -10 -6 -10 -13z"/>
<path d="M360 919 c0 -5 5 -7 10 -4 6 3 10 1 10 -4 0 -6 5 -11 11 -11 8 0 8 5
-1 15 -14 17 -30 20 -30 4z"/>
<path d="M732 900 c0 -19 2 -27 5 -17 2 9 2 25 0 35 -3 9 -5 1 -5 -18z"/>
<path d="M1516 914 c-33 -32 -10 -74 40 -74 20 0 33 4 29 10 -3 5 -12 7 -20 3
-9 -3 -23 1 -32 8 -14 13 -13 15 18 20 l34 6 -33 2 c-38 1 -34 21 4 21 13 0
24 5 24 10 0 16 -47 12 -64 -6z"/>
<path d="M2820 918 c0 -4 5 -10 10 -13 6 -3 10 -2 10 4 0 5 8 12 18 14 9 3 5
4 -10 4 -16 -1 -28 -5 -28 -9z"/>
<path d="M2884 921 c4 -5 0 -11 -6 -14 -7 -3 -3 -4 8 -4 21 1 23 27 2 27 -5 0
-7 -4 -4 -9z"/>
<path d="M2944 916 c-9 -10 -5 -12 21 -12 22 1 31 5 28 14 -7 16 -35 15 -49
-2z"/>
<path d="M675 910 c-3 -5 3 -14 12 -20 13 -8 14 -13 5 -16 -6 -3 -10 -10 -6
-15 3 -5 -5 -23 -17 -41 -13 -17 -18 -28 -11 -24 7 4 12 3 12 -2 0 -6 -7 -13
-16 -16 -21 -8 -26 -8 -20 3 3 4 -7 6 -22 4 -19 -3 -23 -2 -13 5 8 6 9 12 3
16 -13 8 -26 -10 -17 -24 3 -5 14 -10 23 -10 15 0 15 -2 2 -10 -25 -16 -40
-11 -50 15 -5 14 -11 25 -14 25 -6 0 -2 -23 7 -37 6 -9 0 -13 -22 -13 -16 0
-31 -4 -33 -9 -4 -13 -62 -24 -121 -24 -37 1 -45 -2 -37 -11 7 -10 2 -12 -21
-11 -16 1 -33 -3 -37 -9 -4 -6 -19 -17 -34 -25 -40 -20 -26 -27 15 -7 44 20
240 71 339 86 78 13 78 13 88 49 21 80 23 118 6 124 -8 3 -18 2 -21 -3z"/>
<path d="M1323 913 c-15 -6 -18 -83 -3 -83 6 0 10 15 10 33 l0 32 21 -32 c30
-48 49 -43 49 12 0 25 -4 45 -10 45 -5 0 -10 -17 -10 -37 l0 -38 -23 36 c-12
20 -28 34 -34 32z"/>
<path d="M1410 876 c0 -44 1 -46 29 -46 36 0 53 20 49 57 -3 24 -8 28 -40 31
l-38 3 0 -45z m58 1 c3 -22 -1 -27 -17 -27 -17 0 -21 6 -21 31 0 24 4 30 18
27 10 -2 18 -14 20 -31z"/>
<path d="M2776 906 c-21 -10 -24 -14 -13 -19 8 -3 23 3 33 14 20 22 19 22 -20
5z"/>
<path d="M245 900 c3 -5 8 -10 11 -10 2 0 4 5 4 10 0 6 -5 10 -11 10 -5 0 -7
-4 -4 -10z"/>
<path d="M410 897 c0 -7 9 -13 20 -13 11 0 20 1 20 3 0 1 -9 7 -20 13 -15 8
-20 8 -20 -3z"/>
<path d="M563 895 c-7 -8 -9 -16 -4 -19 5 -3 12 1 15 10 8 22 4 25 -11 9z"/>
<path d="M633 889 c-2 -23 3 -25 10 -4 4 8 3 16 -1 19 -4 3 -9 -4 -9 -15z"/>
<path d="M1132 868 c3 -40 5 -43 36 -46 18 -2 32 1 32 7 0 6 -10 10 -22 8 -20
-2 -23 3 -26 36 -2 20 -8 37 -13 37 -6 0 -9 -19 -7 -42z"/>
<path d="M1210 875 c0 -42 25 -60 64 -45 21 8 26 16 26 45 0 21 -5 35 -13 35
-7 0 -12 -13 -12 -32 0 -26 -4 -33 -20 -33 -15 0 -21 8 -23 33 -4 43 -22 41
-22 -3z"/>
<path d="M214 892 c4 -7 2 -19 -4 -27 -7 -9 -8 -15 -2 -15 16 0 24 32 11 44
-9 8 -10 8 -5 -2z"/>
<path d="M590 891 c0 -10 19 -25 25 -20 1 2 -3 10 -11 17 -8 7 -14 8 -14 3z"/>
<path d="M2813 885 c0 -8 4 -12 9 -9 5 3 6 10 3 15 -9 13 -12 11 -12 -6z"/>
<path d="M2854 888 c3 -12 0 -18 -10 -18 -8 0 -13 -4 -9 -10 3 -5 13 -6 21 -3
9 3 20 0 25 -8 6 -10 9 -8 9 10 0 13 -3 21 -7 18 -3 -4 -12 1 -20 11 -14 16
-14 16 -9 0z"/>
<path d="M307 870 c-19 -22 -21 -30 -9 -30 5 0 14 11 20 25 14 30 12 31 -11 5z"/>
<path d="M370 880 c0 -5 5 -10 11 -10 5 0 7 5 4 10 -3 6 -8 10 -11 10 -2 0 -4
-4 -4 -10z"/>
<path d="M2370 873 c0 -15 -2 -16 -10 -3 -9 13 -11 13 -20 0 -5 -8 -10 -10
-10 -4 0 5 -11 10 -24 10 -18 0 -22 -4 -18 -20 3 -11 7 -16 9 -10 2 5 20 8 42
6 32 -3 39 0 44 17 3 12 1 21 -4 21 -5 0 -9 -8 -9 -17z"/>
<path d="M2400 870 c0 -11 4 -20 8 -20 4 0 8 9 8 20 0 11 -4 20 -8 20 -4 0 -8
-9 -8 -20z"/>
<path d="M2430 872 c0 -10 7 -19 15 -19 8 0 15 9 15 19 0 10 -7 18 -15 18 -8
0 -15 -8 -15 -18z"/>
<path d="M90 870 c0 -5 5 -10 11 -10 5 0 7 5 4 10 -3 6 -8 10 -11 10 -2 0 -4
-4 -4 -10z"/>
<path d="M332 860 c-7 -11 -8 -20 -2 -20 5 0 14 9 20 20 6 11 7 20 3 20 -5 0
-14 -9 -21 -20z"/>
<path d="M470 870 c0 -5 7 -10 16 -10 8 0 12 5 9 10 -3 6 -10 10 -16 10 -5 0
-9 -4 -9 -10z"/>
<path d="M810 852 c0 -41 14 -57 36 -43 18 10 18 10 1 11 -22 0 -35 29 -18 40
10 5 9 9 -3 13 -12 5 -16 0 -16 -21z"/>
<path d="M2677 873 c-11 -10 -8 -25 2 -18 6 3 14 -3 20 -12 9 -16 10 -16 11
-2 0 19 -24 42 -33 32z"/>
<path d="M2908 873 c6 -2 10 -9 7 -14 -4 -5 1 -6 9 -3 20 8 11 24 -12 23 -11
0 -12 -2 -4 -6z"/>
<path d="M15 860 c3 -5 8 -10 11 -10 2 0 4 5 4 10 0 6 -5 10 -11 10 -5 0 -7
-4 -4 -10z"/>
<path d="M127 853 c3 -7 6 -13 8 -13 1 0 7 6 13 13 8 10 6 13 -7 13 -11 0 -17
-6 -14 -13z"/>
<path d="M445 860 c3 -5 8 -10 11 -10 2 0 4 5 4 10 0 6 -5 10 -11 10 -5 0 -7
-4 -4 -10z"/>
<path d="M2770 860 c-9 -6 -10 -10 -3 -10 6 0 15 5 18 10 8 12 4 12 -15 0z"/>
<path d="M2954 859 c-7 -11 22 -47 30 -38 8 7 -5 49 -15 49 -4 0 -11 -5 -15
-11z"/>
<path d="M403 848 c-4 -7 -8 -17 -8 -22 0 -5 -6 -11 -14 -14 -9 -3 -11 2 -7
19 6 21 6 22 -5 6 -16 -27 2 -43 30 -25 12 7 19 18 17 25 -3 6 0 14 7 17 9 3
9 5 0 5 -6 1 -15 -5 -20 -11z"/>
<path d="M510 855 c0 -2 9 -9 20 -15 16 -9 18 -8 14 5 -5 13 -34 22 -34 10z"/>
<path d="M616 848 c3 -4 0 -8 -7 -8 -7 0 -10 -2 -8 -5 7 -7 49 6 49 16 0 4 -9
7 -19 6 -11 0 -17 -5 -15 -9z"/>
<path d="M560 846 c0 -2 8 -10 18 -17 15 -13 16 -12 3 4 -13 16 -21 21 -21 13z"/>
<path d="M2784 839 c-3 -5 -3 -9 1 -9 3 0 1 -9 -5 -20 -11 -21 -30 -27 -30 -9
0 6 -7 17 -15 25 -17 18 -19 11 -5 -17 7 -13 7 -19 0 -19 -5 0 -10 -5 -10 -11
0 -8 4 -8 14 0 11 9 16 9 21 0 6 -8 10 -7 17 5 5 9 13 14 19 11 5 -4 9 1 9 9
0 8 7 19 16 24 14 8 13 10 -5 15 -11 3 -24 1 -27 -4z"/>
<path d="M165 830 c-16 -4 -24 -8 -17 -9 7 0 10 -6 6 -13 -5 -8 -11 -6 -19 5
-16 23 -24 21 -22 -3 2 -24 45 -28 53 -5 4 8 12 15 20 15 8 0 14 5 14 10 0 6
-1 9 -2 9 -2 -1 -16 -5 -33 -9z"/>
<path d="M80 820 c0 -5 5 -10 11 -10 5 0 7 5 4 10 -3 6 -8 10 -11 10 -2 0 -4
-4 -4 -10z"/>
<path d="M325 821 c-11 -5 -23 -7 -26 -5 -4 2 -6 -8 -6 -22 0 -16 2 -21 7 -14
4 7 13 9 19 6 6 -4 11 -3 11 3 0 5 -6 12 -12 15 -7 3 -3 3 10 0 16 -4 22 -1
22 10 0 9 -1 16 -2 15 -2 0 -12 -4 -23 -8z"/>
<path d="M1714 816 c-9 -25 0 -61 16 -61 22 0 26 60 5 69 -9 3 -18 0 -21 -8z
m26 -26 c0 -11 -4 -20 -10 -20 -5 0 -10 9 -10 20 0 11 5 20 10 20 6 0 10 -9
10 -20z"/>
<path d="M1777 823 c-3 -4 -4 -19 -3 -33 1 -18 7 -26 23 -28 20 -3 23 1 20 30
-2 31 -28 51 -40 31z m33 -43 c0 -5 -4 -10 -10 -10 -5 0 -10 5 -10 10 0 6 5
10 10 10 6 0 10 -4 10 -10z"/>
<path d="M1852 822 c13 -5 15 -11 8 -22 -12 -18 -13 -40 -2 -40 4 0 12 16 18
35 11 34 10 35 -15 34 -20 0 -22 -2 -9 -7z"/>
<path d="M2328 822 c-26 -5 -22 -19 5 -16 12 1 25 3 30 3 4 1 7 5 7 9 0 9 -14
10 -42 4z"/>
<path d="M2380 817 c0 -4 16 -7 35 -5 19 1 35 5 35 8 0 4 -16 6 -35 6 -19 -1
-35 -5 -35 -9z"/>
<path d="M2656 821 c-3 -5 2 -12 11 -15 15 -6 15 -8 3 -16 -9 -6 -10 -10 -3
-10 20 0 25 19 9 35 -8 8 -17 11 -20 6z"/>
<path d="M2865 823 c37 -8 63 -25 59 -38 -3 -7 0 -16 7 -21 8 -5 10 -3 4 6 -4
7 -2 16 6 21 10 6 10 9 2 9 -7 0 -10 7 -7 18 5 14 4 15 -5 2 -8 -12 -13 -12
-23 -2 -6 6 -23 11 -37 11 -21 -1 -22 -2 -6 -6z"/>
<path d="M20 815 c1 -26 15 -33 35 -18 14 11 15 14 4 10 -9 -3 -22 0 -28 6 -6
6 -11 7 -11 2z"/>
<path d="M453 801 c-12 -19 0 -52 14 -37 4 5 2 11 -5 13 -10 4 -10 8 -1 19 7
8 10 16 8 19 -3 2 -10 -4 -16 -14z"/>
<path d="M630 809 c0 -5 5 -7 10 -4 6 3 10 8 10 11 0 2 -4 4 -10 4 -5 0 -10
-5 -10 -11z"/>
<path d="M1523 804 c-4 -11 1 -22 12 -30 18 -14 18 -14 -1 -14 -15 0 -16 -2
-4 -10 30 -19 55 31 28 58 -16 16 -27 15 -35 -4z m27 -14 c0 -5 -2 -10 -4 -10
-3 0 -8 5 -11 10 -3 6 -1 10 4 10 6 0 11 -4 11 -10z"/>
<path d="M1640 800 c0 -13 5 -18 15 -14 10 4 15 0 15 -11 0 -11 -5 -15 -15
-11 -8 3 -15 1 -15 -4 0 -17 30 -11 37 6 4 10 -1 22 -11 30 -16 12 -16 13 1
17 14 4 14 5 -4 6 -17 1 -23 -5 -23 -19z"/>
<path d="M266 802 c-2 -4 -1 -14 3 -21 6 -10 10 -9 14 3 6 16 -8 32 -17 18z"/>
<path d="M481 794 c0 -11 3 -14 6 -6 3 7 2 16 -1 19 -3 4 -6 -2 -5 -13z"/>
<path d="M1390 800 c0 -5 7 -7 15 -4 8 4 15 2 15 -4 0 -5 -7 -15 -15 -22 -23
-19 -18 -30 13 -29 23 0 24 2 8 8 -14 5 -16 10 -8 15 20 12 14 46 -8 46 -11 0
-20 -4 -20 -10z"/>
<path d="M1462 778 c3 -35 24 -49 35 -22 4 10 0 22 -11 30 -16 12 -16 13 1 17
14 4 13 5 -5 6 -20 1 -23 -3 -20 -31z m28 -8 c0 -5 -4 -10 -10 -10 -5 0 -10 5
-10 10 0 6 5 10 10 10 6 0 10 -4 10 -10z"/>
<path d="M2860 800 c-9 -6 -10 -10 -3 -10 6 0 15 5 18 10 8 12 4 12 -15 0z"/>
<path d="M2985 800 c3 -5 8 -10 11 -10 2 0 4 5 4 10 0 6 -5 10 -11 10 -5 0 -7
-4 -4 -10z"/>
<path d="M75 791 c-3 -5 -1 -12 5 -16 5 -3 10 1 10 9 0 18 -6 21 -15 7z"/>
<path d="M840 789 c0 -5 -4 -7 -10 -4 -5 3 -10 1 -10 -4 0 -17 37 -13 44 4 3
9 0 15 -9 15 -8 0 -15 -5 -15 -11z"/>
<path d="M2807 779 c-3 -10 2 -20 10 -23 10 -4 13 -2 10 8 -3 7 -1 18 4 23 6
6 4 10 -5 10 -8 0 -17 -8 -19 -18z"/>
<path d="M227 784 c7 -3 9 -12 6 -20 -3 -8 1 -14 8 -14 12 0 12 -2 0 -9 -8 -5
-9 -11 -3 -15 5 -3 15 1 22 9 10 12 9 16 -3 21 -9 3 -13 12 -10 20 3 9 -1 14
-13 13 -11 0 -14 -3 -7 -5z"/>
<path d="M2884 778 c3 -10 0 -18 -7 -19 -7 0 -3 -4 8 -9 25 -11 44 -12 29 -2
-6 4 -16 16 -23 27 -9 15 -11 16 -7 3z"/>
<path d="M390 768 c0 -18 20 -28 53 -28 17 0 19 2 7 9 -8 6 -18 7 -24 4 -5 -3
-15 2 -23 12 -11 16 -13 16 -13 3z"/>
<path d="M1598 773 c7 -3 16 -2 19 1 4 3 -2 6 -13 5 -11 0 -14 -3 -6 -6z"/>
<path d="M2968 768 c0 -7 -2 -17 -3 -23 -2 -5 -3 -14 -4 -19 0 -5 -7 -3 -15 3
-11 9 -18 8 -30 -5 -14 -13 -19 -14 -33 -2 -15 12 -15 11 -3 -9 15 -23 54 -28
46 -6 -4 10 1 12 18 7 13 -3 27 -1 31 5 3 6 10 9 14 7 3 -3 7 4 7 14 0 15 -3
17 -15 7 -11 -10 -13 -8 -7 11 4 12 5 22 2 22 -3 0 -7 -6 -8 -12z"/>
<path d="M10 750 c-6 -11 -8 -20 -6 -20 3 0 10 9 16 20 6 11 8 20 6 20 -3 0
-10 -9 -16 -20z"/>
<path d="M62 755 c9 -10 21 -16 28 -13 7 2 -1 10 -16 17 -27 12 -28 11 -12 -4z"/>
<path d="M120 688 c0 -52 -4 -78 -9 -72 -11 10 -111 6 -111 -5 0 -4 26 -7 57
-7 53 1 58 -1 64 -24 9 -33 10 -24 12 92 1 54 -1 98 -5 98 -5 0 -8 -37 -8 -82z"/>
<path d="M316 744 c-4 -15 -5 -29 -1 -32 3 -3 5 2 5 11 0 10 5 17 10 17 6 0
10 7 10 15 0 25 -17 17 -24 -11z"/>
<path d="M2670 755 c0 -9 6 -12 15 -9 8 4 12 10 9 15 -8 14 -24 10 -24 -6z"/>
<path d="M2776 763 c-4 -5 -13 -8 -19 -8 -11 0 -13 -5 -16 -48 0 -10 -5 -15
-11 -12 -5 3 -10 2 -10 -4 0 -15 18 -23 25 -11 4 7 13 7 26 -1 12 -6 23 -8 27
-5 3 3 0 6 -6 6 -7 0 -11 3 -11 8 1 4 1 14 0 22 -1 12 -3 12 -10 2 -6 -10 -10
-9 -14 7 -3 12 -2 19 3 16 9 -5 35 23 28 30 -3 3 -8 2 -12 -2z"/>
<path d="M155 750 c-3 -5 -3 -14 0 -20 3 -5 1 -10 -4 -10 -6 0 -11 -7 -11 -16
0 -12 6 -10 21 10 11 14 27 26 34 26 27 0 23 16 -5 18 -16 1 -31 -2 -35 -8z"/>
<path d="M2548 744 c-13 -13 -44 -17 -155 -20 -167 -5 -223 -12 -223 -26 0 -7
38 -8 123 -3 67 4 142 8 167 10 25 1 55 3 68 4 12 0 26 9 29 19 4 9 11 20 17
24 7 5 7 8 1 8 -6 0 -18 -7 -27 -16z"/>
<path d="M360 739 c0 -5 5 -7 10 -4 6 3 10 8 10 11 0 2 -4 4 -10 4 -5 0 -10
-5 -10 -11z"/>
<path d="M2682 725 c-11 -13 -10 -15 7 -15 14 0 19 5 15 15 -7 18 -6 18 -22 0z"/>
<path d="M2800 730 c0 -5 8 -7 18 -3 9 3 14 3 10 -2 -9 -10 10 -35 26 -35 6 0
4 5 -4 10 -8 5 -11 10 -6 10 5 0 3 7 -4 15 -14 17 -40 20 -40 5z"/>
<path d="M270 715 c0 -8 2 -15 4 -15 2 0 6 7 10 15 3 8 1 15 -4 15 -6 0 -10
-7 -10 -15z"/>
<path d="M2567 723 c-10 -9 33 -54 45 -47 5 3 15 0 23 -6 8 -7 15 -9 15 -4 0
5 7 -2 16 -14 21 -30 44 -28 44 4 0 23 -3 25 -25 20 -24 -6 -31 4 -26 37 0 4
-4 7 -10 7 -6 0 -8 -8 -5 -18 5 -16 2 -18 -23 -14 -18 2 -28 10 -27 19 1 17
-16 28 -27 16z"/>
<path d="M10 700 c-8 -5 -12 -12 -9 -15 4 -3 12 1 19 10 14 17 11 19 -10 5z"/>
<path d="M597 670 c5 -33 3 -40 -11 -40 -15 0 -15 -2 0 -31 15 -30 15 -32 -7
-55 -12 -13 -20 -26 -17 -29 3 -3 13 6 22 20 9 14 22 23 28 19 8 -5 9 2 3 22
-5 16 -7 53 -6 82 1 28 -2 52 -7 52 -6 0 -8 -17 -5 -40z"/>
<path d="M240 690 c0 -5 5 -10 10 -10 6 0 10 5 10 10 0 6 -4 10 -10 10 -5 0
-10 -4 -10 -10z"/>
<path d="M2940 679 c0 -19 -2 -21 -10 -9 -7 12 -12 12 -21 3 -8 -8 -28 -10
-56 -6 -29 4 -43 2 -43 -6 0 -8 -5 -9 -19 -1 -13 6 -22 7 -26 0 -3 -5 -13 -7
-23 -4 -14 5 -15 4 -2 -5 17 -12 107 -14 198 -5 57 6 61 8 60 31 l-2 24 -18
-23 c-10 -13 -18 -20 -19 -15 -1 4 -2 11 -3 16 -3 22 -16 22 -16 0z"/>
<path d="M520 651 c0 -24 5 -41 14 -44 20 -8 26 2 26 45 0 31 -3 38 -20 38
-17 0 -20 -7 -20 -39z m17 -3 c-3 -8 -6 -5 -6 6 -1 11 2 17 5 13 3 -3 4 -12 1
-19z"/>
<path d="M95 670 c-3 -5 -1 -10 4 -10 6 0 11 5 11 10 0 6 -2 10 -4 10 -3 0 -8
-4 -11 -10z"/>
<path d="M1060 592 c0 -50 4 -93 9 -97 9 -5 3 174 -5 184 -2 2 -4 -37 -4 -87z"/>
<path d="M393 653 c-24 -9 -13 -23 17 -23 32 0 40 14 14 24 -9 3 -16 6 -17 5
-1 0 -8 -3 -14 -6z"/>
<path d="M2185 644 c-339 -16 -407 -24 -160 -18 295 7 468 16 453 25 -7 5 -15
8 -18 7 -3 0 -126 -7 -275 -14z"/>
<path d="M27 639 c8 -8 16 -8 30 0 16 9 14 10 -11 11 -22 0 -27 -3 -19 -11z"/>
<path d="M2717 626 c-8 -8 -18 -12 -22 -8 -5 4 -5 1 -1 -6 5 -8 -2 -16 -18
-22 -14 -5 -26 -15 -26 -21 0 -6 16 1 35 16 26 19 39 24 48 16 10 -7 13 -5 14
9 2 26 -12 33 -30 16z"/>
<path d="M220 612 c0 -27 -10 -33 -34 -20 -20 11 -20 11 -1 19 15 6 12 8 -15
8 -35 0 -35 0 -12 -16 25 -18 30 -38 6 -29 -8 3 -12 2 -9 -4 7 -12 1 -13 -81
-14 -45 -1 -60 2 -57 12 3 6 1 12 -4 12 -5 0 -9 -9 -10 -20 -2 -19 4 -20 118
-20 l119 0 0 45 c0 25 -4 45 -10 45 -5 0 -10 -8 -10 -18z m-10 -46 c0 -3 -4
-8 -10 -11 -5 -3 -10 -1 -10 4 0 6 5 11 10 11 6 0 10 -2 10 -4z"/>
<path d="M2655 621 c-3 -6 -11 -9 -16 -6 -5 3 -6 -1 -3 -9 7 -18 13 -19 34 -6
11 7 12 12 4 20 -9 9 -14 9 -19 1z"/>
<path d="M2953 623 c9 -2 25 -2 35 0 9 3 1 5 -18 5 -19 0 -27 -2 -17 -5z"/>
<path d="M2610 596 c0 -8 4 -17 9 -20 5 -4 7 3 4 14 -6 23 -13 26 -13 6z"/>
<path d="M936 593 c-12 -12 -6 -43 9 -43 8 0 15 9 15 19 0 21 -13 34 -24 24z"/>
<path d="M1233 593 c15 -2 37 -2 50 0 12 2 0 4 -28 4 -27 0 -38 -2 -22 -4z"/>
<path d="M55 579 c4 -5 18 -9 32 -9 32 0 27 7 -10 14 -16 3 -25 1 -22 -5z"/>
<path d="M2918 583 c7 -3 16 -2 19 1 4 3 -2 6 -13 5 -11 0 -14 -3 -6 -6z"/>
<path d="M312 559 c1 -12 9 -24 16 -27 9 -3 13 3 10 19 -1 12 -9 24 -16 27 -9
3 -13 -3 -10 -19z"/>
<path d="M1297 543 c19 -4 21 -8 13 -24 -6 -11 -7 -19 -2 -19 6 0 12 9 15 20
7 26 27 26 27 -1 0 -11 -4 -17 -10 -14 -5 3 -10 1 -10 -4 0 -6 11 -11 25 -11
14 0 25 6 25 13 0 24 -35 47 -71 46 -23 -1 -27 -3 -12 -6z"/>
<path d="M1568 543 c6 -2 18 -2 25 0 6 3 1 5 -13 5 -14 0 -19 -2 -12 -5z"/>
<path d="M1415 530 c-3 -6 1 -7 9 -4 18 7 21 14 7 14 -6 0 -13 -4 -16 -10z"/>
<path d="M208 517 c16 -19 -20 -50 -38 -34 -10 9 -11 9 -6 0 4 -7 2 -13 -3
-13 -6 0 -11 5 -11 10 0 14 -37 12 -43 -2 -4 -10 -6 -10 -6 -1 -1 7 -8 10 -17
6 -13 -5 -13 -7 -2 -14 17 -11 51 -11 44 0 -3 4 10 1 30 -8 26 -11 34 -21 30
-34 -4 -15 -2 -16 10 -6 8 6 14 22 14 36 0 13 7 26 15 29 24 9 19 44 -6 44
-17 0 -19 -3 -11 -13z"/>
<path d="M23 513 c9 -2 25 -2 35 0 9 3 1 5 -18 5 -19 0 -27 -2 -17 -5z"/>
<path d="M2983 489 c-2 -23 3 -25 10 -4 4 8 3 16 -1 19 -4 3 -9 -4 -9 -15z"/>
<path d="M20 476 c-5 -5 -10 -15 -10 -20 0 -6 4 -4 10 4 7 12 12 12 29 -4 12
-11 21 -14 21 -8 0 7 -5 12 -11 12 -6 0 -9 6 -6 13 6 16 -18 18 -33 3z"/>
<path d="M858 483 c7 -3 16 -2 19 1 4 3 -2 6 -13 5 -11 0 -14 -3 -6 -6z"/>
<path d="M2960 430 c-12 -8 -10 -10 8 -10 13 0 20 4 17 10 -7 12 -6 12 -25 0z"/>
<path d="M2465 325 c0 -49 3 -70 10 -64 13 13 13 115 0 128 -7 7 -10 -13 -10
-64z"/>
<path d="M2781 393 c0 -7 -1 -16 0 -19 1 -8 -22 -24 -34 -24 -5 0 -6 4 -3 8 3
5 -18 8 -46 7 -30 -1 -53 -6 -56 -13 -3 -9 11 -11 48 -7 32 3 49 1 45 -5 -8
-13 -2 -13 30 4 20 11 51 13 111 10 46 -3 84 -1 84 3 0 4 -15 8 -32 7 -45 0
-58 5 -59 25 0 14 -1 14 -7 1 -11 -23 -69 -26 -75 -3 -3 10 -5 12 -6 6z"/>
<path d="M2948 393 c7 -3 16 -2 19 1 4 3 -2 6 -13 5 -11 0 -14 -3 -6 -6z"/>
<path d="M88 363 c7 -3 16 -2 19 1 4 3 -2 6 -13 5 -11 0 -14 -3 -6 -6z"/>
<path d="M2982 358 c-7 -7 -12 -16 -12 -21 0 -5 7 -1 16 8 9 9 14 18 12 20 -2
3 -10 -1 -16 -7z"/>
<path d="M2603 309 c0 -30 -3 -60 -6 -66 -4 -6 0 -13 8 -17 12 -4 15 3 14 37
-1 23 -5 56 -9 72 -7 24 -8 19 -7 -26z"/>
<path d="M75 320 c-8 -13 5 -13 25 0 13 8 13 10 -2 10 -9 0 -20 -4 -23 -10z"/>
<path d="M2568 302 c-3 -20 0 -36 9 -43 15 -13 16 7 4 51 -7 24 -8 24 -13 -8z"/>
<path d="M2960 310 c0 -5 5 -10 11 -10 5 0 7 5 4 10 -3 6 -8 10 -11 10 -2 0
-4 -4 -4 -10z"/>
<path d="M165 290 c-3 -5 1 -10 10 -10 9 0 13 5 10 10 -3 6 -8 10 -10 10 -2 0
-7 -4 -10 -10z"/>
<path d="M2650 298 c18 -18 71 -35 76 -26 4 6 2 8 -4 4 -5 -3 -12 -2 -14 3 -1
5 -16 13 -33 17 -16 4 -28 5 -25 2z"/>
<path d="M2750 291 c0 -6 9 -9 19 -8 11 0 17 5 15 9 -7 11 -34 10 -34 -1z"/>
<path d="M2913 292 c-37 -6 -26 -18 12 -14 19 2 35 5 35 7 0 7 -27 11 -47 7z"/>
<path d="M2840 279 c0 -5 5 -7 10 -4 6 3 10 8 10 11 0 2 -4 4 -10 4 -5 0 -10
-5 -10 -11z"/>
<path d="M33 255 c0 -8 4 -15 9 -15 4 0 8 7 8 15 0 8 -4 15 -8 15 -5 0 -9 -7
-9 -15z"/>
<path d="M130 259 c0 -5 5 -7 10 -4 6 3 10 8 10 11 0 2 -4 4 -10 4 -5 0 -10
-5 -10 -11z"/>
<path d="M2700 238 c0 -5 25 -8 55 -8 30 0 55 4 55 9 0 4 -25 8 -55 7 -30 -1
-55 -4 -55 -8z"/>
<path d="M2826 242 c-2 -4 11 -6 30 -4 19 2 34 6 34 8 0 8 -59 4 -64 -4z"/>
<path d="M2908 243 c6 -2 18 -2 25 0 6 3 1 5 -13 5 -14 0 -19 -2 -12 -5z"/>
<path d="M2950 246 c0 -10 28 -13 41 -5 10 6 7 9 -13 9 -16 0 -28 -2 -28 -4z"/>
<path d="M62 224 c-14 -16 -5 -18 17 -5 7 5 9 11 5 14 -5 3 -15 -1 -22 -9z"/>
<path d="M205 230 c-3 -5 -1 -10 4 -10 6 0 11 5 11 10 0 6 -2 10 -4 10 -3 0
-8 -4 -11 -10z"/>
<path d="M2436 212 l-19 -27 24 22 c12 12 21 24 18 27 -2 2 -13 -8 -23 -22z"/>
<path d="M2643 233 c9 -2 25 -2 35 0 9 3 1 5 -18 5 -19 0 -27 -2 -17 -5z"/>
<path d="M1500 221 c0 -4 11 -6 25 -3 14 2 25 6 25 8 0 2 -11 4 -25 4 -14 0
-25 -4 -25 -9z"/>
<path d="M1618 223 c6 -2 18 -2 25 0 6 3 1 5 -13 5 -14 0 -19 -2 -12 -5z"/>
<path d="M1430 206 c0 -2 7 -7 16 -10 8 -3 12 -2 9 4 -6 10 -25 14 -25 6z"/>
<path d="M1470 206 c0 -2 8 -10 18 -17 15 -13 16 -12 3 4 -13 16 -21 21 -21
13z"/>
<path d="M1598 203 c7 -3 16 -2 19 1 4 3 -2 6 -13 5 -11 0 -14 -3 -6 -6z"/>
<path d="M1646 198 c3 -4 11 -5 19 -1 21 7 19 12 -4 10 -11 0 -18 -5 -15 -9z"/>
<path d="M1388 193 c7 -3 16 -2 19 1 4 3 -2 6 -13 5 -11 0 -14 -3 -6 -6z"/>
<path d="M1543 178 c0 -13 1 -17 4 -10 3 6 10 9 16 5 7 -4 6 1 -2 10 -17 21
-17 21 -18 -5z"/>
<path d="M2543 190 c-28 -11 -29 -15 -3 -17 11 -1 20 3 20 8 0 6 5 7 12 3 7
-4 8 -3 4 4 -4 7 -8 12 -9 11 -1 0 -12 -4 -24 -9z"/>
<path d="M2590 184 c0 -17 17 -18 23 -1 3 9 7 9 20 -2 11 -9 17 -10 17 -2 0 6
-3 12 -7 12 -38 7 -53 5 -53 -7z"/>
<path d="M2660 189 c0 -4 7 -9 15 -13 8 -3 15 -1 15 5 0 6 5 7 10 4 6 -3 10
-2 10 3 0 6 -11 9 -25 8 -14 0 -25 -4 -25 -7z"/>
<path d="M2727 186 c-4 -9 4 -13 24 -13 16 0 28 1 27 2 -2 1 -13 7 -25 13 -16
9 -22 9 -26 -2z"/>
<path d="M2791 183 c12 -14 129 -17 129 -2 0 14 -18 19 -23 7 -4 -10 -6 -10
-6 0 -1 6 -11 12 -23 11 -22 0 -22 -1 -3 -9 15 -7 10 -9 -23 -9 -24 -1 -41 3
-38 7 3 5 -1 9 -9 9 -11 0 -12 -4 -4 -14z"/>
<path d="M2940 191 c0 -5 11 -8 25 -8 14 0 25 2 25 6 0 4 -11 8 -25 9 -14 1
-25 -2 -25 -7z"/>
<path d="M956 178 c3 -4 11 -5 19 -1 21 7 19 12 -4 10 -11 0 -18 -5 -15 -9z"/>
<path d="M1010 181 c0 -6 4 -13 10 -16 6 -3 7 1 4 9 -7 18 -14 21 -14 7z"/>
<path d="M1053 183 c9 -2 25 -2 35 0 9 3 1 5 -18 5 -19 0 -27 -2 -17 -5z"/>
<path d="M1123 183 c9 -2 23 -2 30 0 6 3 -1 5 -18 5 -16 0 -22 -2 -12 -5z"/>
<path d="M28 173 c7 -3 16 -2 19 1 4 3 -2 6 -13 5 -11 0 -14 -3 -6 -6z"/>
<path d="M225 169 c-10 -15 -2 -19 24 -12 17 4 19 8 9 14 -18 12 -26 11 -33
-2z"/>
<path d="M1170 170 c0 -5 5 -10 10 -10 6 0 10 5 10 10 0 6 -4 10 -10 10 -5 0
-10 -4 -10 -10z"/>
<path d="M2085 170 c-3 -5 1 -10 10 -10 9 0 13 5 10 10 -3 6 -8 10 -10 10 -2
0 -7 -4 -10 -10z"/>
<path d="M2122 171 c2 -8 16 -15 30 -15 17 -1 24 3 21 11 -6 16 -20 17 -29 2
-4 -8 -9 -7 -16 2 -8 12 -9 12 -6 0z"/>
<path d="M130 148 c-12 -22 -12 -22 6 -6 10 10 15 20 12 24 -4 3 -12 -5 -18
-18z"/>
<path d="M170 160 c0 -13 11 -13 30 0 12 8 11 10 -7 10 -13 0 -23 -4 -23 -10z"/>
<path d="M1395 159 c-6 -16 -81 -19 -105 -5 -13 9 -13 8 -1 -8 13 -15 13 -19
0 -27 -9 -5 -10 -9 -2 -9 6 0 15 5 18 10 4 6 15 8 25 5 10 -3 21 -2 24 4 3 5
15 7 26 4 19 -5 40 21 26 34 -3 3 -8 0 -11 -8z"/>
<path d="M1606 155 c-4 -13 -10 -15 -14 -8 -5 8 -11 7 -20 -3 -11 -12 -8 -14
16 -14 16 0 36 8 43 17 8 9 9 14 2 10 -6 -4 -13 -2 -15 5 -3 7 -7 4 -12 -7z"/>
<path d="M2582 154 c10 -10 20 -16 22 -13 3 3 -5 11 -17 18 -21 13 -21 12 -5
-5z"/>
<path d="M28 153 c6 -2 18 -2 25 0 6 3 1 5 -13 5 -14 0 -19 -2 -12 -5z"/>
<path d="M78 148 c5 -5 16 -8 23 -6 8 3 3 7 -10 11 -17 4 -21 3 -13 -5z"/>
<path d="M1200 156 c0 -4 15 -13 33 -21 31 -14 30 -14 -47 -15 -60 0 -77 3
-73 13 3 8 -5 13 -22 14 -18 1 -21 0 -9 -5 12 -5 15 -11 8 -22 -7 -11 -13 -12
-32 -2 -13 7 -51 14 -85 16 -49 3 -59 1 -50 -10 7 -7 16 -9 21 -4 6 6 15 2 22
-8 8 -10 13 -12 14 -4 0 7 12 12 28 11 l27 -1 -25 -9 c-15 -4 33 -6 115 -2 77
3 141 6 143 8 6 6 -10 32 -21 32 -7 0 -20 4 -29 8 -10 4 -18 4 -18 1z"/>
<path d="M1498 154 c-3 -3 -20 -7 -38 -9 -48 -6 -48 -14 -1 -12 22 1 43 7 45
14 6 14 3 17 -6 7z"/>
<path d="M1699 151 c11 -7 11 -10 0 -15 -9 -3 -6 -5 5 -3 29 3 32 27 4 27 -17
0 -19 -3 -9 -9z"/>
<path d="M2628 153 c7 -3 16 -2 19 1 4 3 -2 6 -13 5 -11 0 -14 -3 -6 -6z"/>
<path d="M2693 153 c15 -2 37 -2 50 0 12 2 0 4 -28 4 -27 0 -38 -2 -22 -4z"/>
<path d="M282 129 c-14 -22 -7 -25 14 -5 8 8 11 17 6 20 -4 2 -13 -4 -20 -15z"/>
<path d="M1180 140 c0 -5 5 -10 11 -10 5 0 7 5 4 10 -3 6 -8 10 -11 10 -2 0
-4 -4 -4 -10z"/>
<path d="M1525 140 c-19 -8 -19 -9 3 -9 12 -1 22 4 22 9 0 6 -1 10 -2 9 -2 0
-12 -4 -23 -9z"/>
<path d="M1658 143 c7 -3 16 -2 19 1 4 3 -2 6 -13 5 -11 0 -14 -3 -6 -6z"/>
<path d="M233 125 c0 -8 6 -15 12 -15 6 0 12 7 12 15 0 8 -6 15 -12 15 -6 0
-12 -7 -12 -15z"/>
<path d="M817 124 c5 -14 3 -16 -11 -11 -10 4 -15 3 -11 -3 9 -15 35 -12 35 4
0 8 -4 18 -10 21 -6 4 -7 -1 -3 -11z"/>
<path d="M2066 132 c5 -5 41 -5 79 -2 l70 7 -79 1 c-44 1 -76 -2 -70 -6z"/>
<path d="M2228 133 c7 -3 16 -2 19 1 4 3 -2 6 -13 5 -11 0 -14 -3 -6 -6z"/>
<path d="M45 122 c-25 -18 -13 -30 21 -22 46 11 60 25 16 17 -21 -4 -31 -3
-27 3 7 12 4 13 -10 2z"/>
<path d="M195 109 c2 -10 0 -19 -6 -19 -5 0 -9 7 -9 15 0 8 -7 15 -15 15 -13
0 -13 -3 -3 -20 15 -23 29 -25 46 -8 16 16 15 25 -2 31 -10 4 -14 0 -11 -14z"/>
<path d="M877 114 c6 -16 29 -19 38 -4 3 6 3 10 -2 11 -4 0 -16 2 -25 4 -11 2
-15 -2 -11 -11z"/>
<path d="M6 111 c-4 -7 -5 -15 -2 -18 9 -9 19 4 14 18 -4 11 -6 11 -12 0z"/>
<path d="M120 110 c0 -5 5 -10 10 -10 6 0 10 5 10 10 0 6 -4 10 -10 10 -5 0
-10 -4 -10 -10z"/>
<path d="M2856 112 c-3 -5 1 -9 9 -9 8 0 12 4 9 9 -3 4 -7 8 -9 8 -2 0 -6 -4
-9 -8z"/>
<path d="M2044 102 c3 -2 19 -5 38 -7 18 -2 45 -6 61 -10 20 -5 27 -4 27 7 0
11 -15 15 -65 15 -36 0 -63 -2 -61 -5z"/>
<path d="M2285 100 c-36 -8 -15 -20 30 -16 17 2 41 4 54 4 13 1 22 4 20 6 -10
9 -77 13 -104 6z"/>
<path d="M2683 103 c9 -2 25 -2 35 0 9 3 1 5 -18 5 -19 0 -27 -2 -17 -5z"/>
<path d="M115 90 c-30 -8 -30 -8 8 -9 23 -1 36 3 32 9 -3 6 -7 9 -8 9 -1 -1
-15 -5 -32 -9z"/>
<path d="M2190 90 c-9 -6 -10 -10 -3 -10 6 0 15 5 18 10 8 12 4 12 -15 0z"/>
<path d="M2230 90 c0 -5 5 -10 11 -10 5 0 7 5 4 10 -3 6 -8 10 -11 10 -2 0 -4
-4 -4 -10z"/>
<path d="M818 83 c34 -2 90 -2 125 0 34 2 6 3 -63 3 -69 0 -97 -1 -62 -3z"/>
<path d="M2483 83 c9 -2 23 -2 30 0 6 3 -1 5 -18 5 -16 0 -22 -2 -12 -5z"/>
<path d="M1246 71 c-4 -5 3 -7 14 -4 23 6 26 13 6 13 -8 0 -17 -4 -20 -9z"/>
<path d="M1298 68 c5 -5 16 -8 23 -6 8 3 3 7 -10 11 -17 4 -21 3 -13 -5z"/>
<path d="M2640 70 l-45 -8 45 1 c25 0 51 -3 58 -7 7 -4 12 -1 12 8 0 17 -1 17
-70 6z"/>
<path d="M2725 70 c-3 -6 1 -7 9 -4 18 7 21 14 7 14 -6 0 -13 -4 -16 -10z"/>
<path d="M2978 73 c7 -3 16 -2 19 1 4 3 -2 6 -13 5 -11 0 -14 -3 -6 -6z"/>
<path d="M2440 60 c-25 -4 -38 -8 -30 -9 23 -4 84 0 137 9 l48 8 -55 -1 c-30
0 -75 -3 -100 -7z"/>
<path d="M260 50 c-13 -8 -12 -10 3 -10 9 0 17 5 17 10 0 12 -1 12 -20 0z"/>
<path d="M998 53 c7 -3 16 -2 19 1 4 3 -2 6 -13 5 -11 0 -14 -3 -6 -6z"/>
<path d="M2265 50 c-3 -5 1 -10 9 -10 9 0 16 5 16 10 0 6 -4 10 -9 10 -6 0
-13 -4 -16 -10z"/>
<path d="M2300 48 c0 -10 17 -10 24 0 3 5 -1 9 -9 9 -8 0 -15 -4 -15 -9z"/>
<path d="M2340 45 c0 -8 5 -15 11 -15 5 0 8 4 5 9 -4 5 0 12 6 14 8 3 6 6 -4
6 -10 1 -18 -6 -18 -14z"/>
<path d="M220 40 c0 -5 5 -10 11 -10 5 0 7 5 4 10 -3 6 -8 10 -11 10 -2 0 -4
-4 -4 -10z"/>
<path d="M328 43 c7 -3 16 -2 19 1 4 3 -2 6 -13 5 -11 0 -14 -3 -6 -6z"/>
<path d="M558 43 c7 -3 16 -2 19 1 4 3 -2 6 -13 5 -11 0 -14 -3 -6 -6z"/>
<path d="M1720 39 c-41 -3 -70 -7 -65 -8 14 -5 157 -2 162 3 9 9 -27 11 -97 5z"/>
<path d="M2885 45 c23 -8 83 -10 79 -3 -3 4 -24 8 -47 7 -23 0 -37 -2 -32 -4z"/>
<path d="M2985 40 c-3 -5 -1 -10 4 -10 6 0 11 5 11 10 0 6 -2 10 -4 10 -3 0
-8 -4 -11 -10z"/>
<path d="M1000 29 c-22 -6 -20 -7 13 -8 38 -1 47 3 25 11 -7 3 -24 1 -38 -3z"/>
<path d="M2825 30 l-30 -8 27 -1 c15 0 30 4 33 9 3 6 5 9 3 9 -2 -1 -16 -5
-33 -9z"/>
<path d="M920 20 c-23 -7 -23 -8 -3 -9 12 -1 25 4 28 9 3 6 5 10 3 9 -2 -1
-14 -5 -28 -9z"/>
<path d="M1150 19 c0 -5 5 -7 10 -4 6 3 10 8 10 11 0 2 -4 4 -10 4 -5 0 -10
-5 -10 -11z"/>
<path d="M1330 20 c-13 -8 -13 -10 2 -10 9 0 20 5 23 10 8 13 -5 13 -25 0z"/>
<path d="M1563 24 c9 -3 15 -10 12 -15 -4 -5 -1 -9 5 -9 19 0 5 25 -16 27 -16
2 -16 1 -1 -3z"/>
<path d="M2866 15 c-11 -8 -16 -15 -10 -15 5 0 18 7 28 15 11 8 16 15 10 15
-5 0 -18 -7 -28 -15z"/>
<path d="M85 10 l-40 -7 37 -2 c20 0 40 4 43 9 3 6 5 9 3 9 -2 -1 -21 -5 -43
-9z"/>
<path d="M260 9 c0 -5 9 -9 20 -9 11 0 20 2 20 4 0 2 -9 6 -20 9 -11 3 -20 1
-20 -4z"/>
<path d="M328 8 c5 -5 16 -8 23 -6 8 3 3 7 -10 11 -17 4 -21 3 -13 -5z"/>
<path d="M390 10 c-9 -6 -10 -10 -3 -10 6 0 15 5 18 10 8 12 4 12 -15 0z"/>
<path d="M1773 14 c4 -5 53 -9 109 -11 132 -4 121 7 -13 13 -57 3 -100 2 -96
-2z"/>
<path d="M2140 10 c-8 -5 -10 -10 -5 -10 6 0 17 5 25 10 8 5 11 10 5 10 -5 0
-17 -5 -25 -10z"/>
<path d="M2478 13 c7 -3 16 -2 19 1 4 3 -2 6 -13 5 -11 0 -14 -3 -6 -6z"/>
<path d="M2540 10 c10 -6 70 -1 70 6 0 2 -18 3 -40 2 -23 -1 -36 -4 -30 -8z"/>
<path d="M2078 3 c7 -3 16 -2 19 1 4 3 -2 6 -13 5 -11 0 -14 -3 -6 -6z"/>
<path d="M2778 3 c7 -3 16 -2 19 1 4 3 -2 6 -13 5 -11 0 -14 -3 -6 -6z"/>
</g>
</svg>
