<?xml version="1.0" standalone="no"?><svg xmlns="http://www.w3.org/2000/svg" viewBox="0 0 1440 320"><path fill="#266afb" fill-opacity="1" d="M0,128L30,133.3C60,139,120,149,180,138.7C240,128,300,96,360,117.3C420,139,480,213,540,256C600,299,660,309,720,272C780,235,840,149,900,122.7C960,96,1020,128,1080,133.3C1140,139,1200,117,1260,90.7C1320,64,1380,32,1410,16L1440,0L1440,320L1410,320C1380,320,1320,320,1260,320C1200,320,1140,320,1080,320C1020,320,960,320,900,320C840,320,780,320,720,320C660,320,600,320,540,320C480,320,420,320,360,320C300,320,240,320,180,320C120,320,60,320,30,320L0,320Z"></path></svg>